<svg width="128" height="103" viewBox="0 0 128 103" fill="none" xmlns="http://www.w3.org/2000/svg">
<path d="M91.5794 34.6069C93.2155 30.3474 93.1437 25.6202 91.3767 21.4085C89.5803 17.1425 86.1881 13.7416 81.923 11.9455C77.6574 10.1493 72.8571 10.0913 68.5466 11.7895L68.1136 11.9601L67.9303 11.5324C66.5668 8.35082 64.2941 5.64554 61.3967 3.74225C58.5047 1.84392 55.1134 0.836622 51.6505 0.84534C48.2 0.86781 44.8344 1.88431 41.9504 3.77881C39.0704 5.67366 36.797 8.3618 35.4106 11.5224L35.2248 11.9459L34.795 11.7754C30.4896 10.0684 25.6894 10.1174 21.4191 11.9091L91.5794 34.6069ZM91.5794 34.6069L90.7801 34.9769L91.7645 35.4016C96.0207 37.2379 99.3812 40.6696 101.128 44.9615L101.128 44.962C102.88 49.2533 102.876 54.0577 101.12 58.3453C99.3589 62.6334 95.9938 66.0607 91.7333 67.8879L91.3044 68.0719L91.4768 68.5055C93.1884 72.8105 93.1438 77.6152 91.352 81.8897C89.5557 86.1596 86.1593 89.5603 81.8898 91.3563L91.5794 34.6069ZM21.4056 91.3564C25.6797 93.1525 30.4843 93.1971 34.7894 91.49L35.2221 91.3184L35.4063 91.7459C37.238 95.9977 40.6698 99.3627 44.9574 101.114C49.245 102.866 54.0497 102.866 58.3378 101.114C62.6251 99.3627 66.0527 95.9977 67.8891 91.7455L68.0735 91.3186L68.5058 91.49C72.8114 93.1971 77.6161 93.1524 81.8896 91.3564H21.4056ZM21.4056 91.3564C17.136 89.5603 13.7396 86.1597 11.9432 81.8897C10.1515 77.6158 10.1068 72.8108 11.814 68.5051L11.9847 68.0745L11.5602 67.8892C8.39507 66.5071 5.69804 64.2335 3.79886 61.3492C1.90002 58.4652 0.879041 55.0906 0.856571 51.6356C0.847852 48.1727 1.85514 44.7814 3.75344 41.8893C5.65656 38.9921 8.36628 36.7192 11.5481 35.3556L11.9761 35.1722L11.805 34.739C10.1025 30.4286 10.1604 25.6284 11.9566 21.3628C13.7528 17.0974 17.1536 13.7009 21.4189 11.9092L21.4056 91.3564Z" fill="#FFD979" stroke="#340AAB" stroke-width="0.958635"/>
<circle cx="109.692" cy="24.5507" r="6.29228" fill="#FFD979" stroke="#340AAB" stroke-width="0.958635"/>
<circle cx="124.203" cy="33.2569" r="2.4228" fill="#FFD979" stroke="#340AAB" stroke-width="0.958635"/>
<path d="M15.6476 60.018C16.1195 58.3666 16.5929 56.7153 17.0788 55.017C15.8665 55.017 14.7085 55.017 13.4915 55.017C13.6001 54.6124 13.6793 54.2486 13.8066 53.902C13.8361 53.822 14.0317 53.764 14.1512 53.7624C15.1322 53.7514 16.1148 53.7546 17.0959 53.7577C17.2853 53.7577 17.4374 53.7561 17.5057 53.5146C18.1794 51.1106 18.864 48.7097 19.5656 46.2351C18.3796 46.2351 17.2309 46.2351 16 46.2351C16.1288 45.7975 16.2157 45.4369 16.3523 45.095C16.3849 45.0134 16.5836 44.9648 16.7078 44.9633C17.664 44.9523 18.6202 44.9476 19.5749 44.9633C19.8574 44.968 19.9801 44.8754 20.0546 44.5979C20.3852 43.3668 20.7376 42.1421 21.0837 40.9157C21.1194 40.7903 21.1707 40.6695 21.2141 40.5472C21.2669 40.5629 21.3212 40.5802 21.374 40.5958C20.9766 42.0276 20.5777 43.4578 20.1601 44.9586C20.3355 44.9586 20.4597 44.9586 20.5823 44.9586C22.0803 44.9586 23.5798 44.9507 25.0778 44.9648C25.3727 44.968 25.5062 44.8833 25.5854 44.5838C25.9083 43.3637 26.2591 42.1515 26.6037 40.9393C26.6425 40.8028 26.7139 40.6758 26.7713 40.5457C26.8164 40.5613 26.8614 40.5786 26.908 40.5943C26.509 42.0292 26.1085 43.4625 25.6925 44.957C26.8971 44.957 28.0396 44.957 29.2597 44.957C29.1324 45.3757 29.0439 45.738 28.9042 46.0798C28.8716 46.1614 28.6714 46.21 28.5472 46.2116C27.5785 46.2225 26.6099 46.2225 25.6413 46.2147C25.4224 46.2131 25.2967 46.2586 25.2268 46.5048C24.5686 48.8602 23.8949 51.211 23.2275 53.5633C23.2135 53.6103 23.2166 53.6621 23.2073 53.7546C24.3699 53.7546 25.514 53.7546 26.7062 53.7546C26.5944 54.1513 26.5168 54.5057 26.3848 54.8382C26.3476 54.9307 26.1473 55.0044 26.02 55.006C25.0778 55.0201 24.134 55.0248 23.1918 55.006C22.9046 54.9997 22.7897 55.1001 22.7136 55.3714C22.3085 56.8251 21.8863 58.2726 21.4656 59.7216C21.4314 59.8423 21.3663 59.9537 21.315 60.0681C21.27 60.0509 21.225 60.0336 21.18 60.0164C21.6503 58.3682 22.1207 56.72 22.6019 55.0358C22.4358 55.0264 22.324 55.0123 22.2123 55.0123C20.7003 55.0107 19.1899 55.0201 17.678 55.0044C17.3753 55.0013 17.2604 55.1001 17.1797 55.3918C16.7854 56.822 16.3679 58.2443 15.9534 59.6667C15.913 59.8078 15.837 59.938 15.778 60.0728C15.7361 60.054 15.6911 60.0368 15.6476 60.018ZM17.647 53.7561C17.8286 53.7561 17.9543 53.7561 18.08 53.7561C19.578 53.7561 21.0775 53.7467 22.5755 53.764C22.8797 53.7671 22.9993 53.6652 23.0769 53.3813C23.6233 51.4133 24.1837 49.4514 24.7409 47.4865C24.8558 47.0803 24.9691 46.6726 25.0871 46.2445C24.966 46.2304 24.9024 46.2163 24.8403 46.2147C23.2523 46.2131 21.6627 46.2194 20.0747 46.2068C19.8186 46.2053 19.7472 46.3307 19.6898 46.5393C19.2536 48.0918 18.8096 49.6412 18.3703 51.1937C18.1313 52.0296 17.8969 52.8654 17.647 53.7561Z" fill="#340AAB"/>
<path d="M61.7077 40.1455C61.7077 39.4446 61.7077 38.7938 61.7077 38.1445C61.7077 37.5016 61.7077 36.857 61.7077 36.1592C61.925 36.3474 61.925 36.3474 61.925 37.4357C61.925 37.892 61.925 38.3484 61.925 38.8032C61.925 39.2423 61.925 39.6829 61.925 40.0467C62.8439 40.2757 63.7288 40.4184 64.5561 40.7242C65.2609 40.9845 65.8927 41.444 66.5679 41.7921C67.195 42.1152 67.2245 42.6421 67.119 43.26C66.5664 42.9777 66.0417 42.6735 65.4891 42.4398C64.9318 42.203 64.3574 41.9929 63.7707 41.8502C63.1886 41.709 62.5832 41.6683 61.9467 41.5789C61.9374 41.8047 61.925 41.9443 61.925 42.0823C61.9234 44.571 61.9312 47.0597 61.9157 49.5469C61.9141 49.8793 62.0259 50.0079 62.3317 50.1208C63.395 50.516 64.477 50.8893 65.4906 51.3926C67.0398 52.1642 67.9805 53.3937 67.9215 55.2347C67.861 57.1746 67.06 58.6644 65.3152 59.5724C64.3916 60.0522 63.3935 60.2404 62.3674 60.3173C62.2401 60.3267 62.1128 60.3345 61.9296 60.3471C61.9141 61.6424 61.9359 62.9299 61.9188 64.2158C61.8567 64.2142 61.7946 64.2127 61.7325 64.2127C61.7325 62.9377 61.7325 61.6628 61.7325 60.4004C61.0635 60.2984 60.4503 60.2326 59.848 60.1103C58.7195 59.8813 57.7105 59.3763 56.7543 58.7287C56.1675 58.3319 55.8974 57.863 56.1334 57.093C57.799 58.2143 59.5965 58.9796 61.6859 58.9278C61.6937 58.7679 61.7061 58.6424 61.7077 58.5154C61.7092 55.8448 61.703 53.1741 61.7154 50.5035C61.717 50.2024 61.6145 50.0895 61.3413 49.9828C60.3696 49.6018 59.3808 49.2395 58.4572 48.7565C56.8428 47.9097 56.0092 46.5689 56.1986 44.6761C56.3833 42.8319 57.2138 41.4158 58.957 40.7148C59.6866 40.4215 60.5031 40.3478 61.2823 40.18C61.405 40.1518 61.5354 40.1565 61.7077 40.1455ZM61.9545 58.9122C63.277 58.8682 64.522 58.724 65.7033 58.1955C68.3608 57.0052 68.0923 53.8077 66.6269 52.459C65.3012 51.2405 63.6248 50.7952 61.956 50.2008C61.9545 53.1302 61.9545 55.9969 61.9545 58.9122ZM61.6875 41.593C60.5155 41.6149 59.4103 41.7435 58.3749 42.2406C56.0402 43.3635 55.6258 46.1188 57.5661 47.8532C58.0784 48.3111 58.7024 48.6687 59.3218 48.9729C60.0669 49.3383 60.8632 49.6002 61.6875 49.9248C61.6875 47.1005 61.6875 44.375 61.6875 41.593Z" fill="#340AAB"/>
<path d="M46.623 48.8583C46.623 47.5755 46.623 46.2927 46.623 45.0099C46.6696 45.0068 46.7177 45.0037 46.7643 45.0005C46.7829 45.1479 46.8155 45.2954 46.8155 45.4428C46.8186 48.3094 46.8031 51.1761 46.8295 54.0428C46.8357 54.7532 46.918 55.4745 47.0701 56.1677C47.2533 57.0067 47.7888 57.5775 48.6643 57.7265C49.6376 57.8927 50.5255 57.7515 51.1588 56.8812C51.6882 56.1536 51.89 55.3005 51.9971 54.4317C52.3044 51.9524 52.233 49.4934 51.5454 47.0721C50.406 43.0528 47.2222 40.5406 43.0823 40.3791C41.1683 40.3054 39.3148 40.5218 37.5871 41.4188C35.4093 42.5494 34.0122 44.3638 33.3075 46.6832C32.1681 50.439 32.1696 54.2027 33.7281 57.8425C35.0926 61.0322 37.6353 62.6914 41.027 63.0615C42.9332 63.27 44.7913 63.0756 46.5672 62.2978C46.6029 62.2821 46.6417 62.2711 46.6789 62.268C46.6991 62.2664 46.7224 62.2836 46.8342 62.3275C46.6587 62.4342 46.5377 62.5283 46.4026 62.5847C44.5228 63.3547 42.57 63.5084 40.5784 63.2246C38.0295 62.8623 35.9293 61.7112 34.4236 59.5612C33.5139 58.2628 32.9628 56.8091 32.6741 55.2565C32.1324 52.3428 32.1572 49.4417 33.101 46.6095C34.3599 42.8286 36.9771 40.6833 40.9184 40.2301C43.0372 39.9854 45.1033 40.1956 47.0453 41.1396C49.4389 42.3017 50.9043 44.276 51.6711 46.7836C52.5373 49.6157 52.5807 52.5012 52.0142 55.3993C51.9443 55.7537 51.8124 56.1002 51.6633 56.4311C51.0269 57.8362 49.5336 58.4039 48.121 57.7892C47.2719 57.4191 46.9149 56.682 46.7565 55.8305C46.6541 55.2738 46.6199 54.7045 46.5516 54.1165C46.3778 54.5963 46.2381 55.0684 46.0409 55.5137C44.931 58.0213 42.0779 59.0328 39.7867 57.7374C38.8181 57.1901 38.177 56.3464 37.8076 55.3146C36.9026 52.7835 36.8808 50.2242 37.7998 47.7025C38.4207 45.9963 39.6222 44.8939 41.5005 44.77C43.8056 44.6179 45.4914 45.794 46.2583 48.0287C46.3529 48.3063 46.4337 48.5886 46.5206 48.8677C46.5563 48.8646 46.5889 48.8614 46.623 48.8583ZM46.6789 51.5791C46.5625 50.7041 46.5113 49.9074 46.3452 49.1359C46.0052 47.5645 45.0894 46.4637 43.4827 46.161C42.6445 46.0026 41.7566 45.9744 40.9075 46.0544C39.2729 46.2065 38.1413 47.1051 37.6973 48.7297C37.1789 50.6272 37.1804 52.5436 37.7548 54.4317C38.1537 55.7443 39.0509 56.5691 40.3813 56.8781C41.3359 57.0992 42.2983 57.096 43.2639 56.9141C44.8301 56.6193 45.8531 55.6988 46.252 54.1588C46.4771 53.2963 46.5501 52.3946 46.6789 51.5791Z" fill="#340AAB"/>
<path d="M78.6348 45.2858C78.6379 46.3239 78.5152 47.3401 78.0821 48.2936C77.4907 49.5952 76.5081 50.3259 75.0536 50.3212C73.6022 50.3165 72.573 49.5999 72.0391 48.2779C71.2319 46.28 71.2334 44.2304 72.0344 42.2293C72.5653 40.9011 73.6038 40.1813 75.0443 40.1734C76.4879 40.164 77.4814 40.8995 78.0759 42.2027C78.5214 43.1797 78.6456 44.2209 78.6348 45.2858ZM71.6013 45.234C71.6944 45.9287 71.741 46.6328 71.8931 47.315C72.1384 48.4127 72.8121 49.1686 73.936 49.3458C74.6128 49.4525 75.3253 49.4477 76.0098 49.3772C77.084 49.2674 77.8322 48.6433 78.1396 47.5973C78.5975 46.0401 78.5975 44.4593 78.1411 42.9021C77.8183 41.7996 77.0126 41.2116 75.8981 41.0955C75.3517 41.0391 74.7882 41.0375 74.2418 41.094C72.9828 41.2273 72.1741 41.9361 71.8916 43.1781C71.741 43.8446 71.696 44.5377 71.6013 45.234Z" fill="#340AAB"/>
<path d="M89.8051 55.247C89.8067 56.3635 89.6763 57.4565 89.1671 58.4696C88.5664 59.6661 87.6055 60.3169 86.2628 60.3248C84.9076 60.3326 83.9141 59.7022 83.3025 58.4916C82.6413 57.1805 82.5745 55.7692 82.6847 54.339C82.7484 53.5157 82.9253 52.7175 83.3134 51.9804C83.939 50.7933 84.9123 50.1707 86.2519 50.1738C87.5807 50.1785 88.5369 50.8168 89.1423 51.9898C89.6685 53.0107 89.8067 54.1163 89.8051 55.247ZM82.7686 55.3034C82.8586 55.9715 82.9005 56.6646 83.0542 57.3311C83.3305 58.537 84.1144 59.2537 85.3376 59.3917C85.9337 59.4591 86.5499 59.4576 87.146 59.3886C88.1954 59.2694 88.9669 58.6986 89.282 57.6635C89.7787 56.0311 89.788 54.3797 89.2525 52.7504C88.9498 51.8299 88.259 51.2826 87.3276 51.1414C86.6974 51.0458 86.0377 51.0316 85.4059 51.1022C84.0896 51.2512 83.3289 51.9616 83.0433 53.2679C82.8989 53.925 82.8586 54.6056 82.7686 55.3034Z" fill="#340AAB"/>
<path d="M74.7344 60.0142C74.9843 59.2975 86.2462 40.6626 86.5784 40.5513C82.6449 47.1142 78.7533 53.6081 74.8601 60.102C74.8182 60.0738 74.7763 60.044 74.7344 60.0142Z" fill="#340AAB"/>
</svg>
