<svg version="1.2" baseProfile="tiny-ps" xmlns="http://www.w3.org/2000/svg" viewBox="0 0 502 406" width="251.16" height="203.23">
	<title>Page 1</title>
	<defs>
		<clipPath clipPathUnits="userSpaceOnUse" id="cp1">
			<path d="M0 0L502 0L502 406L0 406Z" />
		</clipPath>
		<clipPath clipPathUnits="userSpaceOnUse" id="cp2">
			<path d="M362.46 82.21C369.76 99.6 369.96 119.14 363.01 136.67L363 136.67C380.33 144.15 394.01 158.12 401.12 175.59C408.26 193.07 408.24 212.63 401.09 230.08C393.92 247.54 380.22 261.49 362.87 268.93C369.84 286.46 369.66 306.02 362.36 323.42C355.05 340.81 341.23 354.65 323.84 361.96C306.44 369.28 286.88 369.46 269.35 362.51C261.88 379.82 247.92 393.52 230.47 400.65C213.01 407.78 193.45 407.78 175.99 400.65C158.54 393.52 144.56 379.82 137.11 362.51C119.58 369.46 100.02 369.28 82.62 361.96C65.23 354.65 51.41 340.81 44.09 323.42C36.8 306.02 36.62 286.46 43.57 268.93C30.68 263.31 19.71 254.05 11.98 242.31C4.25 230.57 0.09 216.84 0 202.77C-0.04 188.67 4.06 174.87 11.8 163.09C19.54 151.29 30.58 142.04 43.53 136.49C36.6 118.94 36.84 99.4 44.15 82.03C51.46 64.66 65.31 50.84 82.67 43.54C100.06 36.25 119.6 36.05 137.13 43C142.77 30.13 152.03 19.19 163.75 11.48C175.49 3.77 189.19 -0.37 203.23 -0.46C217.33 -0.5 231.14 3.6 242.92 11.33C254.71 19.08 263.97 30.1 269.52 43.05C287.07 36.14 306.61 36.38 323.97 43.69C341.34 51 355.15 64.85 362.46 82.21Z" />
		</clipPath>
		<clipPath clipPathUnits="userSpaceOnUse" id="cp3">
			<path d="M460.14 95.4C460.14 110.23 448.13 122.24 433.3 122.24C418.48 122.24 406.46 110.23 406.46 95.4C406.46 80.58 418.48 68.56 433.3 68.56C448.13 68.56 460.14 80.58 460.14 95.4Z" />
		</clipPath>
		<clipPath clipPathUnits="userSpaceOnUse" id="cp4">
			<path d="M502.32 129.91C502.32 136.27 497.17 141.42 490.82 141.42C484.47 141.42 479.32 136.27 479.32 129.91C479.32 123.56 484.47 118.41 490.82 118.41C497.17 118.41 502.32 123.56 502.32 129.91Z" />
		</clipPath>
	</defs>
	<style>
		tspan { white-space:pre }
		.shp0 { fill: #dabcff } 
		.shp1 { fill: #340aab } 
	</style>
	<g id="Page 1" clip-path="url(#cp1)">
		<path id="Path 1" class="shp0" d="M362.46 82.21C369.76 99.6 369.96 119.14 363.01 136.67L363 136.67C380.33 144.15 394.01 158.12 401.12 175.59C408.26 193.07 408.24 212.63 401.09 230.08C393.92 247.54 380.22 261.49 362.87 268.93C369.84 286.46 369.66 306.02 362.36 323.42C355.05 340.81 341.23 354.65 323.84 361.96C306.44 369.28 286.88 369.46 269.35 362.51C261.88 379.82 247.92 393.52 230.47 400.65C213.01 407.78 193.45 407.78 175.99 400.65C158.54 393.52 144.56 379.82 137.11 362.51C119.58 369.46 100.02 369.28 82.62 361.96C65.23 354.65 51.41 340.81 44.09 323.42C36.8 306.02 36.62 286.46 43.57 268.93C30.68 263.31 19.71 254.05 11.98 242.31C4.25 230.57 0.09 216.84 0 202.77C-0.04 188.67 4.06 174.87 11.8 163.09C19.54 151.29 30.58 142.04 43.53 136.49C36.6 118.94 36.84 99.4 44.15 82.03C51.46 64.66 65.31 50.84 82.67 43.54C100.06 36.25 119.6 36.05 137.13 43C142.77 30.13 152.03 19.19 163.75 11.48C175.49 3.77 189.19 -0.37 203.23 -0.46C217.33 -0.5 231.14 3.6 242.92 11.33C254.71 19.08 263.97 30.1 269.52 43.05C287.07 36.14 306.61 36.38 323.97 43.69C341.34 51 355.15 64.85 362.46 82.21Z" />
		<g id="Mask" clip-path="url(#cp2)">
			<path id="Path 3" fill-rule="evenodd" class="shp1" d="M362.24 138.43L363 136.67L363 136.67L363 136.67L363 136.67L362.24 138.43L358.3 136.73L361.5 135.25C367.98 118.37 367.7 99.64 360.69 82.96L360.69 82.96C353.58 66.05 340.13 52.57 323.23 45.45C306.33 38.34 287.3 38.11 270.22 44.84L269.52 43.05L269.52 43.05L270.22 44.84L268.49 45.52L267.76 43.81C262.35 31.2 253.35 20.48 241.86 12.94L241.86 12.94C230.4 5.41 216.97 1.42 203.24 1.46C189.57 1.55 176.23 5.57 164.8 13.08L164.8 13.08C153.39 20.59 144.38 31.24 138.88 43.77L138.14 45.46L136.42 44.78L137.13 43L137.13 43L136.42 44.78C119.36 38.02 100.34 38.21 83.41 45.31L83.41 45.31C66.51 52.41 53.03 65.87 45.92 82.77C38.8 99.68 38.57 118.7 45.31 135.78L43.53 136.49L43.53 136.49L45.31 135.78L46 137.52L44.29 138.25C31.68 143.65 20.94 152.66 13.4 164.14L13.4 164.14C5.88 175.6 1.88 189.04 1.92 202.76C2.01 216.46 6.05 229.83 13.58 241.26L13.58 241.26C21.1 252.69 31.79 261.7 44.33 267.18L46.03 267.92L45.35 269.64C38.58 286.7 38.76 305.75 45.86 322.68L45.86 322.68C52.98 339.6 66.44 353.08 83.36 360.2L83.36 360.2C100.3 367.32 119.34 367.49 136.4 360.73L138.13 360.04L138.87 361.75C146.13 378.6 159.73 391.94 176.72 398.88L175.99 400.65L176.05 400.52L175.99 400.65L176.72 398.88C193.71 405.82 212.75 405.82 229.74 398.88L229.74 398.88C246.73 391.94 260.31 378.6 267.59 361.75L268.33 360.04L270.06 360.73C287.12 367.49 306.16 367.32 323.1 360.2L323.1 360.2C340.02 353.08 353.48 339.6 360.6 322.68L360.6 322.68C367.7 305.74 367.87 286.7 361.09 269.64L360.4 267.91L362.12 267.17L362.87 268.93L362.87 268.93L362.12 267.17C379 259.93 392.34 246.35 399.31 229.36L399.31 229.36C406.27 212.36 406.29 193.32 399.35 176.32L401.12 175.59L401.11 175.6L401.12 175.6L399.35 176.32C392.42 159.31 379.11 145.71 362.24 138.43ZM401.11 175.6L399.35 176.32L399.35 176.32L401.11 175.6ZM364.13 324.16L364.13 324.17L362.36 323.42L362.36 323.42L364.13 324.17C356.63 342.01 342.43 356.22 324.59 363.73L323.84 361.96L323.85 361.98L324.59 363.73L324.58 363.73C307.29 371 287.91 371.41 270.36 364.95C262.53 381.92 248.55 395.34 231.19 402.43L230.47 400.65L230.56 400.87L231.19 402.43L231.19 402.43C213.27 409.75 193.19 409.75 175.27 402.43L175.27 402.43C157.91 395.34 143.92 381.93 136.09 364.95C118.55 371.41 99.17 371 81.87 363.73L81.87 363.73L82.61 361.98L82.62 361.96L81.87 363.73C64.03 356.22 49.83 342.01 42.33 324.17L42.33 324.16C35.07 306.87 34.67 287.49 41.13 269.94C28.63 264.11 17.97 254.91 10.37 243.37L11.98 242.31L11.51 242.62L10.37 243.37L10.37 243.37C2.44 231.32 -1.82 217.22 -1.92 202.79L-1.92 202.78C-1.95 188.3 2.26 174.13 10.19 162.04L11.79 163.09L11.75 163.06L10.19 162.04L10.19 162.04C17.81 150.44 28.52 141.24 41.09 135.47C34.65 117.91 35.11 98.55 42.38 81.29C49.89 63.46 64.1 49.26 81.93 41.78L81.93 41.77C99.21 34.52 118.58 34.1 136.13 40.56C141.97 28.08 151.17 17.46 162.69 9.88L162.69 9.88C174.74 1.96 188.81 -2.28 203.22 -2.38L203.23 -2.38L203.23 -2.38C217.7 -2.42 231.88 1.79 243.97 9.73L243.97 9.73C255.56 17.35 264.77 28.04 270.53 40.62C288.1 34.19 307.46 34.65 324.72 41.92C342.55 49.43 356.72 63.64 364.23 81.47L362.47 82.21L362.48 82.2L364.23 81.47L364.23 81.47C371.48 98.75 371.9 118.11 365.44 135.66C382.43 143.5 395.83 157.5 402.9 174.87L402.9 174.87C410.22 192.81 410.2 212.89 402.86 230.81L402.86 230.81C395.74 248.16 382.33 262.14 365.31 269.95C371.79 287.49 371.38 306.87 364.13 324.16ZM176.05 400.52L176.72 398.88L176.72 398.88L176.05 400.52ZM364.51 138.09L364.79 137.38L363.01 136.67L363.81 138.41L364.51 138.09ZM323.97 43.69L323.23 45.45L323.97 43.69ZM44.15 82.03L42.38 81.29L44.15 82.03Z" />
		</g>
		<path id="Path 5" class="shp0" d="M460.14 95.4C460.14 110.23 448.13 122.24 433.3 122.24C418.48 122.24 406.46 110.23 406.46 95.4C406.46 80.58 418.48 68.56 433.3 68.56C448.13 68.56 460.14 80.58 460.14 95.4Z" />
		<g id="Mask" clip-path="url(#cp3)">
			<path id="Path 7" class="shp1" d="M458.23 95.4C458.23 109.17 447.07 120.33 433.3 120.33L433.3 124.16C449.19 124.16 462.06 111.28 462.06 95.4L458.23 95.4ZM433.3 120.33C419.54 120.33 408.38 109.17 408.38 95.4L404.54 95.4C404.54 111.28 417.42 124.16 433.3 124.16L433.3 120.33ZM408.38 95.4C408.38 81.64 419.54 70.48 433.3 70.48L433.3 66.64C417.42 66.64 404.54 79.52 404.54 95.4L408.38 95.4ZM433.3 70.48C447.07 70.48 458.23 81.64 458.23 95.4L462.06 95.4C462.06 79.52 449.19 66.64 433.3 66.64L433.3 70.48Z" />
		</g>
		<path id="Path 9" class="shp0" d="M502.32 129.91C502.32 136.27 497.17 141.42 490.82 141.42C484.47 141.42 479.32 136.27 479.32 129.91C479.32 123.56 484.47 118.41 490.82 118.41C497.17 118.41 502.32 123.56 502.32 129.91Z" />
		<g id="Mask" clip-path="url(#cp4)">
			<path id="Path 11" class="shp1" d="M500.41 129.91C500.41 135.21 496.12 139.5 490.82 139.5L490.82 143.33C498.23 143.33 504.24 137.33 504.24 129.91L500.41 129.91ZM490.82 139.5C485.53 139.5 481.23 135.21 481.23 129.91L477.4 129.91C477.4 137.33 483.41 143.33 490.82 143.33L490.82 139.5ZM481.23 129.91C481.23 124.62 485.53 120.33 490.82 120.33L490.82 116.49C483.41 116.49 477.4 122.5 477.4 129.91L481.23 129.91ZM490.82 120.33C496.12 120.33 500.41 124.62 500.41 129.91L504.24 129.91C504.24 122.5 498.23 116.49 490.82 116.49L490.82 120.33Z" />
		</g>
		<path id="Path 13" class="shp1" d="M270.51 258.33C270.51 271.06 270.51 283.74 270.51 296.66C268.02 296.66 265.63 296.68 263.23 296.63C263.03 296.62 262.75 296.24 262.66 295.97C262.56 295.66 262.63 295.3 262.63 294.96C262.63 277.6 262.65 260.24 262.6 242.89C262.59 241.37 263.02 241 264.46 241.04C268.19 241.14 271.91 241.12 275.63 241.05C276.79 241.02 277.34 241.39 277.76 242.48C282.19 253.93 286.68 265.36 291.15 276.8C292.06 279.12 295.43 280.59 297.66 279.58C297.92 279.46 298.1 278.89 298.11 278.52C298.15 276.43 298.13 274.33 298.13 272.24C298.13 262.42 298.16 252.6 298.1 242.78C298.1 241.46 298.44 240.95 299.79 241.05C301.33 241.16 302.89 241.17 304.43 241.05C305.83 240.95 306.12 241.5 306.1 242.8C306.03 247.22 306.07 251.64 306.07 256.07C306.07 269.06 306.05 282.04 306.1 295.02C306.11 296.37 305.73 296.75 304.4 296.72C300.29 296.64 296.18 296.66 292.07 296.72C291.03 296.74 290.56 296.37 290.19 295.4C285.93 284.3 281.61 273.21 277.31 262.13C275.85 258.34 274.89 257.78 270.51 258.33ZM149.86 296.68C145.96 296.68 142.2 296.68 138.43 296.68C134.62 296.68 134.63 296.68 133.23 293.05C129.21 282.69 125.18 272.32 121.16 261.96C119.76 258.35 118.58 257.69 114.45 258.36C114.45 271.04 114.45 283.74 114.45 296.56C111.77 296.56 109.29 296.56 106.66 296.56C106.66 278.14 106.66 259.71 106.66 241.07C108.09 241.07 109.47 241.07 110.85 241.07C113.76 241.07 116.66 241.13 119.56 241.04C120.72 241.01 121.25 241.41 121.66 242.49C126.03 253.76 130.45 265.01 134.85 276.26C135.96 279.07 136.79 279.64 139.86 279.65C140.52 279.65 141.19 279.65 142.01 279.65C142.01 266.77 142.01 254.05 142.01 241.21C144.69 241.21 147.22 241.21 149.85 241.21C149.86 259.64 149.86 278.04 149.86 296.68Z" />
		<path id="Path 14" fill-rule="evenodd" class="shp1" d="M253.95 267.66C253.98 273.66 253.36 278.6 251.6 283.34C248.24 292.36 241.21 297.38 231.83 297.46C222.21 297.56 214.92 292.76 211.58 283.66C207.94 273.74 207.94 263.64 211.58 253.71C214.92 244.6 222.22 239.81 231.83 239.93C241.26 240.04 248.25 245.03 251.6 254.02C253.19 258.29 253.95 263.02 253.95 267.66ZM216.17 268.65C216.17 275.79 219.47 280.74 225.73 282.38C228.12 283.01 230.7 283.23 233.18 283.12C240.93 282.76 245.67 278.32 246.63 270.86C247.67 262.76 243.75 256.53 236.42 254.75C234.93 254.39 233.37 254.22 231.83 254.18C222.16 253.9 216.18 259.44 216.17 268.65ZM158.54 268.59C158.6 263 159.25 257.53 161.61 252.4C165.5 243.98 172.13 239.86 181.31 239.95C190.47 240.03 197.13 244.29 200.55 252.8C204.77 263.27 204.73 274 200.6 284.49C197 293.61 188.8 298.31 179.09 297.39C169.23 296.44 162.44 290.49 160 280.26C159.1 276.47 158.77 272.52 158.18 268.65C158.3 268.63 158.42 268.61 158.54 268.59ZM165.7 268.63C165.7 275.79 168.99 280.73 175.25 282.38C177.68 283.02 180.32 283.23 182.84 283.1C189.58 282.75 194.09 279.31 195.64 273.43C196.14 271.53 196.25 269.48 196.21 267.52C196.08 260.98 192.27 256.26 185.97 254.74C184.48 254.39 182.91 254.22 181.38 254.17C171.69 253.89 165.71 259.44 165.7 268.63ZM271.05 117.66C265.92 115.88 260.95 114.87 255.87 114.68C252.94 114.57 249.99 114.83 247.07 115.12C245.95 115.22 244.82 115.71 243.82 116.28C241.7 117.48 241.58 119.53 243.56 120.93C244.65 121.7 245.91 122.36 247.18 122.71C251.64 123.94 256.17 124.95 260.64 126.18C262.68 126.75 264.71 127.45 266.61 128.39C271.97 131.01 274.44 135.57 273.98 141.56C273.41 148.99 269.59 154.15 262.65 156.44C253.13 159.58 244.25 158.04 236.4 151.53C235.52 150.79 235.14 149.96 235.17 148.77C235.25 145.67 235.2 142.56 235.2 139.31C237 140.1 238.62 140.95 240.33 141.55C247.74 144.12 255.26 144.53 262.85 142.53C263.84 142.26 264.83 141.7 265.63 141.04C267.05 139.89 267.15 137.99 265.74 136.88C264.44 135.84 262.92 134.91 261.35 134.44C256.81 133.11 252.16 132.16 247.63 130.81C245.06 130.05 242.48 129.07 240.17 127.71C235.28 124.84 234.39 120.04 235.06 114.89C236.11 106.88 242.15 101.27 250.25 100.52C257.67 99.84 264.27 102.07 270.22 106.43C270.58 106.69 271.01 107.16 271.02 107.54C271.08 110.81 271.05 114.1 271.05 117.66ZM315.31 117.38C311.84 116.62 308.61 115.77 305.34 115.23C300.8 114.47 296.21 114.14 291.64 115.05C290.65 115.24 289.67 115.53 288.74 115.92C287.6 116.41 286.58 117.11 286.5 118.53C286.42 119.96 287.33 120.86 288.45 121.34C290.61 122.28 292.82 123.17 295.08 123.8C298.9 124.86 302.77 125.71 306.62 126.65C307.04 126.75 307.45 126.9 307.86 127.04C313.3 128.97 317.52 132.09 318.15 138.37C318.82 145.16 316.64 150.79 310.8 154.55C304.96 158.32 298.5 158.57 291.91 157.18C287.57 156.28 283.68 154.37 280.47 151.26C279.92 150.73 279.53 149.78 279.51 149.01C279.4 145.83 279.46 142.63 279.46 139.2C280.12 139.52 280.54 139.72 280.95 139.93C289.33 144.07 298.07 144.73 307.06 142.53C308.06 142.29 309.04 141.72 309.86 141.07C311.37 139.87 311.45 138.05 309.98 136.8C308.93 135.92 307.68 135.09 306.38 134.71C302.22 133.47 297.96 132.56 293.81 131.32C290.86 130.44 287.9 129.46 285.14 128.11C281.3 126.24 279.54 122.86 279.23 118.58C278.45 107.3 286.78 100.89 295.63 100.43C302.63 100.06 308.85 102.28 314.46 106.38C314.84 106.66 315.26 107.2 315.27 107.62C315.34 110.87 315.31 114.12 315.31 117.38Z" />
		<path id="Path 15" fill-rule="evenodd" class="shp1" d="M230.84 157.13C228.35 157.13 225.99 157.18 223.63 157.09C223.25 157.07 222.72 156.46 222.57 156.02C221.71 153.55 220.9 151.05 220.16 148.53C219.89 147.61 219.51 147.2 218.47 147.2C210.3 147.25 202.13 147.24 193.96 147.2C192.99 147.2 192.6 147.57 192.35 148.43C191.59 150.99 190.79 153.54 189.94 156.07C189.81 156.48 189.33 157.06 188.99 157.08C186.73 157.17 184.47 157.13 181.96 157.13C182.6 155.08 183.15 153.24 183.74 151.41C188.92 135.28 194.12 119.15 199.27 103.01C199.62 101.92 200.09 101.46 201.29 101.5C204.77 101.58 208.25 101.56 211.74 101.51C212.72 101.49 213.18 101.8 213.49 102.77C219.14 120.43 224.83 138.08 230.5 155.74C230.63 156.14 230.7 156.56 230.84 157.13ZM215.41 134.24C215.41 133.97 215.46 133.77 215.41 133.6C214.11 129.48 212.84 125.35 211.47 121.26C210.71 119 208.68 118.75 206.72 118.7C204.7 118.66 202.58 118.61 201.35 120.75C201.15 121.07 201.06 121.46 200.94 121.83C200.16 124.23 199.39 126.63 198.62 129.03C198.07 130.72 197.54 132.42 196.96 134.24C203.23 134.24 209.3 134.24 215.41 134.24ZM215.62 227.4C213.04 227.4 210.68 227.45 208.32 227.34C207.95 227.33 207.45 226.67 207.3 226.21C206.44 223.74 205.64 221.25 204.9 218.73C204.62 217.77 204.16 217.47 203.16 217.47C195.05 217.51 186.93 217.51 178.81 217.47C177.81 217.47 177.35 217.78 177.08 218.74C176.38 221.22 175.52 223.65 174.81 226.11C174.55 227.05 174.17 227.47 173.13 227.43C171.07 227.34 169 227.41 166.69 227.41C167.53 224.73 168.31 222.25 169.11 219.78C174.08 204.3 179.07 188.84 184.01 173.35C184.38 172.19 184.87 171.74 186.12 171.77C189.45 171.87 192.79 171.87 196.12 171.77C197.41 171.74 197.97 172.14 198.36 173.38C202.83 187.43 207.36 201.47 211.87 215.51C212.97 218.93 214.07 222.35 215.16 225.77C215.3 226.21 215.41 226.68 215.62 227.4ZM200.38 204.5C198.92 199.94 197.63 195.56 196.1 191.27C195.31 189.06 193.13 188.98 191.19 188.96C189.26 188.93 187.25 188.97 186.1 191C185.91 191.33 185.81 191.72 185.69 192.09C185.1 193.89 184.52 195.69 183.94 197.5C183.21 199.79 182.47 202.08 181.69 204.51C187.98 204.5 194.06 204.5 200.38 204.5ZM138.75 119.66C137.96 119.24 137.47 118.98 136.98 118.7C131.29 115.49 125.32 113.9 118.74 114.99C111.62 116.19 107.2 121.04 106.95 128.16C106.68 136.01 110.61 141.38 117.83 143.04C124.15 144.49 130.21 143.3 136.17 141.15C137.24 140.76 138.31 140.34 139.55 139.87C139.55 143.39 139.57 146.73 139.53 150.08C139.52 150.46 139.25 150.9 138.99 151.2C131.41 159.56 116 160.26 107.75 152.6C103.95 149.08 101.85 144.57 100.8 139.57C98.94 130.65 99.28 121.85 102.98 113.42C105.75 107.11 110.27 102.56 117.17 100.96C124.74 99.19 131.14 101.51 136.71 106.77C138.19 108.17 138.95 109.6 138.79 111.7C138.61 114.24 138.75 116.8 138.75 119.66ZM214.03 171.87C214.64 171.84 215.16 171.8 215.68 171.8C226.84 171.8 238.01 171.83 249.17 171.77C250.66 171.76 251.06 172.18 251.01 173.65C250.9 177 250.92 180.36 251.01 183.71C251.03 184.95 250.74 185.41 249.41 185.37C245.89 185.28 242.36 185.32 238.83 185.34C236.2 185.35 236.49 184.99 236.48 187.63C236.47 200.22 236.48 212.81 236.48 225.4C236.48 226.02 236.48 226.63 236.48 227.32C233.78 227.32 231.29 227.32 228.6 227.32C228.6 213.32 228.6 199.4 228.6 185.32C223.65 185.32 218.88 185.32 214.03 185.32C214.03 180.77 214.03 176.38 214.03 171.87ZM148.26 101.54C150.66 101.54 152.97 101.52 155.27 101.58C155.53 101.58 155.87 102.06 155.99 102.39C156.12 102.73 156.02 103.15 156.02 103.54C156.02 116.32 156.05 129.11 156 141.89C155.99 143.33 156.42 143.66 157.79 143.65C164.65 143.58 171.52 143.62 178.38 143.62C178.95 143.62 179.52 143.62 180.17 143.62C180.17 148.18 180.17 152.58 180.17 157.06C169.52 157.06 158.94 157.06 148.27 157.06C148.26 138.61 148.26 120.21 148.26 101.54Z" />
	</g>
</svg>