<svg width="131" height="132" viewBox="0 0 131 132" fill="none" xmlns="http://www.w3.org/2000/svg">
<circle cx="65.4383" cy="65.9782" r="64.7078" fill="#2FF89A" stroke="#340AAB" stroke-width="0.958635"/>
<path d="M81.6736 62.2534C78.7224 62.1897 75.8568 61.7841 73.1939 60.4536C69.4114 58.5664 67.3552 55.464 66.8719 51.2997C66.5915 48.8835 66.7904 46.515 67.727 44.2479C68.9262 41.3444 71.0481 39.302 73.9476 38.1943C79.1639 36.2037 84.4538 36.1559 89.6224 38.3077C93.8285 40.0597 96.016 43.4206 96.4654 47.919C96.7299 50.5659 96.4257 53.1353 95.2086 55.5336C93.6435 58.6121 91.0304 60.4019 87.7928 61.3664C86.9874 61.6071 86.1601 61.8059 85.3288 61.9173C84.1138 62.0804 82.8907 62.146 81.6736 62.2534ZM82.2305 55.9095C82.833 55.8657 83.9905 55.8101 85.1399 55.6907C85.8439 55.6172 86.5459 55.474 87.238 55.3169C88.8528 54.9529 90.3781 54.3762 91.6349 53.2566C94.0074 51.1426 93.9458 47.6505 91.5097 45.6141C90.4219 44.7053 89.1531 44.1504 87.7948 43.8044C84.2112 42.8896 80.5918 42.8737 76.9645 43.4802C75.1209 43.7885 73.363 44.3553 71.8754 45.5505C69.3041 47.6167 69.2543 51.3077 71.8297 53.366C72.5774 53.9646 73.4664 54.4399 74.3613 54.7899C76.7039 55.7086 79.1838 55.8797 82.2305 55.9095Z" fill="#340AAB"/>
<path d="M37.0525 49.5627C37.0525 45.6669 37.0584 41.7691 37.0445 37.8713C37.0425 37.4378 37.132 37.2727 37.6133 37.2767C40.9562 37.2986 44.2972 37.2628 47.6402 37.2966C50.3587 37.3244 53.0593 37.5213 55.6367 38.5156C59.8228 40.1324 62.0303 43.2368 62.5215 47.6298C62.7601 49.7497 62.6706 51.8537 62.0621 53.912C60.9643 57.6268 58.391 59.8402 54.7776 60.9718C52.7869 61.5943 50.7366 61.8349 48.6604 61.8468C44.9714 61.8687 41.2804 61.8488 37.5914 61.8687C37.1419 61.8707 37.0425 61.7315 37.0425 61.3079C37.0604 57.3922 37.0525 53.4785 37.0525 49.5627ZM40.465 55.851C40.5684 55.8748 40.6162 55.8967 40.6639 55.8967C44.0029 55.8689 47.3459 55.8828 50.6829 55.7893C52.4369 55.7396 54.167 55.4075 55.7997 54.7174C57.2773 54.093 58.5103 53.1881 59.1189 51.635C60.1967 48.8866 59.0671 46.0945 56.3267 44.7442C54.4991 43.8433 52.5264 43.4814 50.5178 43.4217C47.2961 43.3282 44.0705 43.3461 40.8449 43.3183C40.7196 43.3163 40.5943 43.3481 40.463 43.364C40.465 47.5442 40.465 51.6847 40.465 55.851Z" fill="#340AAB"/>
<path d="M57.4737 65.6355C65.864 65.6355 80.4271 65.6355 88.7756 65.6355C88.7756 66.6477 88.7756 67.6262 88.7756 68.6841C84.8658 68.6841 77.8478 68.6841 73.9002 68.6841C73.9002 76.434 73.9002 84.1064 73.9002 91.8264C73.4329 91.8264 73.0193 91.8264 72.5479 91.8264C72.5479 84.176 72.5479 76.5056 72.5479 68.7577C72.2914 68.7319 72.0806 68.6941 71.8678 68.6941C68.314 68.6901 61.638 68.6822 58.0843 68.702C57.601 68.704 57.438 68.5787 57.4618 68.0856C57.5036 67.2801 57.4737 66.4727 57.4737 65.6355Z" fill="#340AAB"/>
<path d="M45.8166 88.8178C46.9183 88.8178 51.1005 88.8397 52.1585 88.8079C52.6079 88.794 52.7332 88.9411 52.7173 89.3766C52.6855 90.184 52.7073 90.9914 52.7073 91.8366C49.7402 91.8366 40.5844 91.8366 37.6232 91.8366C37.6232 90.8642 37.6232 89.8877 37.6232 88.8317C38.8403 88.8317 43.1875 88.8317 44.4802 88.8317C44.4802 88.5633 44.4802 88.3743 44.4802 88.1854C44.4802 81.8972 44.4742 75.611 44.4921 69.3228C44.4941 68.8077 44.3489 68.6566 43.8398 68.6804C42.9568 68.7202 38.9497 68.6785 38.0647 68.6964C37.7127 68.7043 37.5536 68.6148 37.5655 68.227C37.5914 67.3818 37.5735 66.5366 37.5735 65.6477C40.5426 65.6477 49.7104 65.6477 52.6715 65.6477C52.6715 66.642 52.6715 67.6205 52.6715 68.6725C51.4346 68.6725 47.0853 68.6725 45.8186 68.6725C45.8166 75.4062 45.8166 82.0702 45.8166 88.8178Z" fill="#340AAB"/>
<path d="M96.5244 85.0016C96.4926 85.0274 96.4807 85.0453 96.4647 85.0473C95.2039 85.2144 95.2039 85.2143 95.2039 83.9615C95.2039 78.1406 95.2019 72.3178 95.2059 66.4969C95.2059 65.4946 95.0607 65.6119 96.1108 65.604C96.2321 65.602 96.3534 65.6159 96.5244 65.6259C96.5244 72.101 96.5244 78.5582 96.5244 85.0016Z" fill="#340AAB"/>
<path d="M95.904 92.2681C95.5241 92.2005 95.1323 92.1726 94.7684 92.0553C94.5298 91.9778 94.2891 91.8087 94.1261 91.6158C93.1516 90.4783 93.8258 88.5811 95.2835 88.3186C95.4724 88.2848 95.6693 88.2808 95.8642 88.2788C97.7574 88.2609 98.2267 89.2135 97.9682 90.9098C97.827 91.8346 97.1588 92.2184 95.904 92.2681Z" fill="#340AAB"/>
</svg>
