<svg width="186" height="180" viewBox="0 0 186 180" fill="none" xmlns="http://www.w3.org/2000/svg">
<path d="M62.7004 120.866C58.225 118.049 55.0335 113.59 53.8134 108.442L53.8133 108.441C52.5886 103.296 53.4331 97.8796 56.168 93.3506L56.7222 92.4328L55.8562 92.5964C51.4992 89.7263 48.4214 85.2817 47.2665 80.1891C46.1049 75.0353 46.9993 69.6265 49.7691 65.1289C52.5392 60.6308 56.9591 57.3925 62.089 56.1102L62.5405 55.9974L62.441 55.5428C61.5967 51.6832 61.9129 47.6629 63.3413 43.9732C64.768 40.2914 67.2495 37.1061 70.4715 34.817C73.691 32.5488 77.4911 31.2602 81.4264 31.1065C85.358 30.9559 89.2527 31.9443 92.637 33.9599L93.0343 34.1966L93.285 33.808C96.1513 29.3664 100.642 26.2275 105.797 25.0587C110.947 23.8932 116.359 24.7917 120.856 27.5616C125.354 30.3318 128.593 34.7516 129.871 39.8843L129.983 40.3363L130.438 40.2368C134.298 39.3924 138.323 39.7058 142.012 41.1341C145.694 42.5609 148.879 45.0424 151.168 48.2645C153.44 51.4881 154.73 55.2996 154.88 59.2377C155.029 63.1763 154.033 67.077 152.01 70.4602L151.772 70.8578L152.161 71.1089C156.603 73.9754 159.749 78.4677 160.92 83.6256C162.085 88.7831 161.186 94.1947 158.412 98.6952C155.634 103.199 151.201 106.428 146.071 107.698L145.619 107.81L145.717 108.265C146.837 113.429 145.882 118.831 143.062 123.302C140.241 127.773 135.779 130.961 130.634 132.178C125.49 133.396 120.075 132.544 115.548 129.813L115.15 129.573L114.898 129.964C112.032 134.406 107.54 137.552 102.379 138.718L62.7004 120.866ZM62.7004 120.866C67.1802 123.681 72.579 124.631 77.7481 123.502L78.204 123.402L78.3158 123.855C79.5821 128.989 82.8109 133.422 87.3106 136.203C91.8116 138.977 97.222 139.883 102.379 138.718L62.7004 120.866Z" fill="#DABCFF" stroke="#340AAB" stroke-width="0.958635"/>
<circle r="7.22421" transform="matrix(-0.813737 0.581233 0.581233 0.813737 32.4551 95.192)" fill="#DABCFF" stroke="#340AAB" stroke-width="0.958635"/>
<circle r="2.82219" transform="matrix(-0.813737 0.581233 0.581233 0.813737 24.7801 112.846)" fill="#DABCFF" stroke="#340AAB" stroke-width="0.958635"/>
<path d="M64.5257 79.6823C66.0056 79.6249 66.0206 79.6292 66.1104 80.9506C66.2263 82.6872 66.2924 84.4299 66.4579 86.1625C66.5112 86.7272 66.1747 87.6035 67.1273 87.7386C68.0017 87.8613 67.9798 86.9877 68.1965 86.4838C68.9109 84.827 69.6004 83.1544 70.2062 81.4547C70.4634 80.7326 70.8271 80.5976 71.4995 80.7478C72.1004 80.8808 72.6417 80.8593 72.6658 81.7809C72.7151 83.7772 72.8916 85.7737 73.0848 87.763C73.1195 88.1241 73.4737 88.4564 73.6811 88.8011C73.9821 88.531 74.4146 88.3194 74.558 87.9826C75.3083 86.2342 75.9909 84.4573 76.6843 82.686C77.1734 81.4385 77.1642 81.435 78.6069 81.8961C78.0149 83.3855 77.4276 84.8697 76.833 86.3507C76.2071 87.9063 75.5534 89.4514 74.9533 91.017C74.723 91.6182 74.4518 91.8732 73.7524 91.7325C71.4723 91.2738 71.957 91.7817 71.779 89.622C71.6654 88.2413 71.6412 86.8509 71.5019 85.472C71.467 85.1368 71.1295 84.835 70.9314 84.5175C70.6751 84.753 70.3053 84.9388 70.1789 85.2306C69.4931 86.8303 68.8398 88.447 68.235 90.0794C68.0196 90.6611 67.7193 90.7664 67.1517 90.6824C65.1991 90.3909 65.196 90.4102 65.0671 88.447C64.896 85.8733 64.7212 83.2989 64.5521 80.7254C64.5333 80.3748 64.5359 80.0256 64.5257 79.6823Z" fill="#340AAB"/>
<path d="M126.256 78.1505C124.834 77.2497 123.301 76.7306 121.615 76.7773C120.448 76.8089 119.456 77.1979 118.992 78.3819C118.396 79.9004 118.986 81.4102 120.524 81.9222C121.503 82.2482 122.585 82.38 123.622 82.3813C124.482 82.3826 125.219 81.9254 125.369 80.7592C124.138 80.5642 122.927 80.3722 121.664 80.172C121.75 79.6313 121.813 79.2283 121.903 78.6624C123.208 78.8693 124.57 78.9381 125.814 79.3558C126.303 79.5187 126.836 80.4752 126.815 81.0519C126.765 82.514 126.413 83.968 126.173 85.4834C125.692 85.4072 125.265 85.3394 124.775 85.2617C124.802 84.8171 124.828 84.4099 124.856 83.9715C124.251 84.2748 123.697 84.6698 123.082 84.8365C120.297 85.5909 117.519 83.643 117.426 80.7598C117.385 79.5038 117.578 78.1517 118.028 76.9856C119.503 73.1748 124.231 73.3301 126.396 76.0074C126.752 76.4493 126.531 77.3637 126.577 78.0584C126.469 78.0889 126.362 78.1197 126.256 78.1505Z" fill="#340AAB"/>
<path d="M102.367 96.1817C102.915 92.7246 103.452 89.3354 104 85.8745C106.401 86.2549 108.755 86.628 111.081 86.9966C111.12 87.12 111.157 87.1815 111.155 87.2409C111.069 89.452 111.069 89.452 108.925 89.1122C107.633 88.9075 106.343 88.7031 104.994 88.4893C104.907 89.0416 104.838 89.4737 104.752 90.0201C105.133 90.1084 105.518 90.2191 105.912 90.2875C106.925 90.46 107.942 90.6131 108.957 90.774C110.286 90.9847 110.552 91.442 109.984 92.6829C109.898 92.8679 109.48 93.0261 109.24 92.9941C107.872 92.8189 106.504 92.614 105.15 92.3539C104.435 92.2166 104.281 92.5358 104.176 93.147C104.067 93.7872 104.188 94.0806 104.884 94.1729C106.596 94.4006 108.299 94.7003 110.091 94.9842C109.961 95.8039 109.844 96.5422 109.716 97.3464C107.266 96.9582 104.843 96.5742 102.367 96.1817Z" fill="#340AAB"/>
<path d="M101.096 70.8674C101.874 70.9907 102.585 71.0339 103.247 71.24C103.53 71.3286 103.808 71.7223 103.917 72.0375C104.624 74.0784 105.304 76.129 105.946 78.1894C106.187 78.9626 106.619 79.3072 107.544 79.1976C107.914 76.8644 108.285 74.5216 108.665 72.1246C109.19 72.2077 109.589 72.2709 110.073 72.3477C109.53 75.7757 108.989 79.192 108.429 82.7247C107.635 82.5989 106.867 82.5328 106.136 82.3315C105.879 82.261 105.62 81.8862 105.523 81.5948C104.833 79.5485 104.165 77.4939 103.528 75.4303C103.305 74.7097 102.936 74.3115 102.041 74.4438C101.677 76.7382 101.31 79.0538 100.949 81.3327C99.4884 81.5541 99.3645 81.4351 99.5755 80.1038C100.003 77.3926 100.433 74.6835 100.866 71.9731C100.92 71.6321 101.007 71.2962 101.096 70.8674Z" fill="#340AAB"/>
<path d="M97.0977 87.5943C95.5043 87.2206 94.1176 86.838 92.7078 86.5887C92.0686 86.4755 91.1774 86.1753 90.8793 87.0319C90.8099 87.2355 91.7355 87.8986 92.2918 88.1775C93.2042 88.6399 94.2037 88.9235 95.1372 89.3515C96.5157 89.9832 97.0687 90.8376 96.9589 92.0121C96.8364 93.3157 96.0001 94.3472 94.6507 94.6796C92.5379 95.201 90.6498 94.6872 88.9977 93.2772C88.1087 92.5185 88.7901 91.6869 88.8161 90.8686C89.9249 91.2648 90.9434 91.7242 92.0114 91.9828C92.8703 92.1905 93.7882 92.1989 94.6803 92.1973C94.9679 92.1971 95.2543 91.883 95.5393 91.7136C95.3539 91.4399 95.2291 91.0427 94.9697 90.9142C94.0233 90.4443 93.0334 90.063 92.0609 89.6467C91.6781 89.4827 91.2818 89.3424 90.9134 89.149C90.0159 88.6789 89.3017 88.0513 89.3458 86.922C89.391 85.773 89.9039 84.8809 90.9265 84.3279C92.6339 83.4026 95.9383 84.0375 97.0117 85.6439C97.3253 86.1088 97.0846 86.9486 97.0977 87.5943Z" fill="#340AAB"/>
<path d="M77.2455 74.7672C79.0495 75.1822 80.707 75.6078 82.3856 75.9255C82.9743 76.0367 83.8452 76.1568 83.9892 75.3592C84.0422 75.0617 83.268 74.492 82.7733 74.2448C81.7417 73.7317 80.6313 73.3829 79.5781 72.9081C78.5541 72.4458 77.799 71.756 77.8838 70.4802C77.9648 69.2535 78.7291 68.2443 79.9432 67.815C81.6321 67.2165 84.5419 67.8982 85.5129 69.3115C85.8338 69.7795 85.6163 70.6211 85.6476 71.3491C84.2487 70.9824 83.0586 70.6428 81.8542 70.3685C81.3275 70.2493 80.7665 70.21 80.2288 70.246C79.9204 70.2667 79.6256 70.51 79.3249 70.655C79.5176 70.9199 79.654 71.2812 79.9119 71.4314C80.49 71.7693 81.1274 72.0054 81.7436 72.2759C82.5356 72.6219 83.3762 72.8842 84.1194 73.3159C85.86 74.3287 85.9831 76.4639 84.4296 77.7512C82.5724 79.2884 78.753 78.6076 77.2878 76.6352C76.9447 76.1836 77.2421 75.2573 77.2455 74.7672Z" fill="#340AAB"/>
<path d="M113.969 94.8819C113.845 95.6628 113.751 96.2658 113.654 96.8681C113.458 98.0925 113.43 98.108 112.098 97.6864C112.635 94.301 113.173 90.906 113.734 87.3656C115.687 87.7407 117.745 87.6656 119.557 88.7096C120.892 89.4794 121.393 90.8102 121.056 92.4672C120.717 94.1339 119.749 95.1345 118.189 95.2925C117.495 95.3633 116.781 95.276 116.082 95.2069C115.418 95.1414 114.76 95.0074 113.969 94.8819ZM114.475 92.5248C115.873 92.641 117.229 92.8202 118.586 92.8227C118.965 92.8232 119.347 92.3036 119.728 92.0223C119.442 91.6433 119.233 91.0957 118.856 90.9207C118.175 90.6061 117.396 90.4728 116.646 90.342C114.493 89.969 114.491 89.9845 114.475 92.5248Z" fill="#340AAB"/>
<path d="M75.8662 77.4284C74.8025 77.5876 74.1531 77.3536 74.1265 76.2628C74.1099 75.5529 73.7411 75.2879 73.05 75.2062C71.6467 75.0394 70.246 74.8194 68.8606 74.5402C68.1971 74.4073 67.8777 74.6209 67.5748 75.1867C66.9713 76.3167 66.9284 76.3039 65.6096 75.789C66.2616 74.6369 66.9038 73.4971 67.553 72.3624C68.6085 70.5154 69.6946 68.6852 70.7144 66.8166C71.0176 66.2608 71.3515 66.0793 71.9408 66.2363C72.3124 66.3349 72.7237 66.3067 73.0733 66.4456C73.3197 66.5442 73.6318 66.7963 73.683 67.0289C74.428 70.4604 75.1327 73.8994 75.8662 77.4284ZM73.3878 72.717C73.2001 71.8033 73.0841 70.9804 72.8555 70.1893C72.6599 69.5107 71.2529 69.1447 70.8223 69.6903C70.2685 70.3951 69.8747 71.2266 69.3659 72.0796C70.8026 72.3073 72.0236 72.5008 73.3878 72.717Z" fill="#340AAB"/>
<path d="M87.2888 93.6827C85.9421 93.8249 85.804 93.7712 85.6249 92.5807C85.5138 91.838 85.1727 91.5714 84.4542 91.4893C83.1152 91.3367 81.7794 91.127 80.4591 90.8562C79.745 90.7092 79.2806 90.8383 79.0262 91.5429C78.6766 92.5145 78.0253 92.5761 77.1517 92.1278C77.2316 91.9199 77.2848 91.7079 77.3902 91.5239C78.9857 88.7256 80.6207 85.9494 82.1693 83.1257C82.5735 82.3892 83.0646 82.4253 83.677 82.584C84.299 82.7441 85.067 82.5142 85.2611 83.572C85.84 86.707 86.5318 89.8202 87.177 92.9439C87.2282 93.1884 87.2515 93.4364 87.2888 93.6827ZM84.848 89.0051C84.6635 88.0958 84.5566 87.2645 84.3156 86.4774C84.0759 85.6944 82.6183 85.4634 82.1521 86.1345C81.6811 86.8107 81.3192 87.5638 80.8582 88.3748C82.2265 88.5896 83.4705 88.7868 84.848 89.0051Z" fill="#340AAB"/>
<path d="M136.589 94.309C136.143 94.0615 135.714 93.7948 135.261 93.5781C134.073 93.0083 132.825 92.7589 131.517 93.0442C130.34 93.2987 129.606 94.0922 129.46 95.1974C129.315 96.3006 129.798 97.2832 130.852 97.8415C132.207 98.5588 133.676 98.6427 135.171 98.4922C135.483 98.4602 135.794 98.4141 136.103 98.3738C136.313 100.036 135.942 100.613 134.445 101.011C130.916 101.956 127.908 99.7071 128.051 96.0686C128.097 94.8622 128.485 93.5629 129.069 92.5034C130.445 90.0078 133.675 89.4928 135.904 91.2524C137.079 92.1777 137.21 92.7248 136.589 94.309Z" fill="#340AAB"/>
<path d="M130.85 79.4208C132.678 79.7105 134.321 79.9908 135.973 80.2069C136.167 80.2316 136.542 79.9375 136.599 79.728C136.776 79.0767 136.839 78.3954 136.947 77.7272C137.147 76.4876 137.147 76.4876 138.511 76.8924C138.496 77.1483 138.504 77.4277 138.461 77.7009C138.012 80.5717 137.548 83.4401 137.106 86.3121C137.018 86.8821 136.931 87.2816 136.168 87.1448C135.424 87.013 135.535 86.5856 135.618 86.0882C135.791 85.0469 135.95 84.0034 136.123 82.9124C134.187 82.6055 132.393 82.3213 130.495 82.0204C130.284 83.3536 130.079 84.6462 129.86 86.0297C129.312 85.943 128.865 85.8722 128.366 85.793C128.911 82.3534 129.448 78.9603 129.996 75.5052C130.477 75.5814 130.9 75.6485 131.433 75.7329C131.242 76.9501 131.057 78.1167 130.85 79.4208Z" fill="#340AAB"/>
<path d="M87.1094 71.2967C87.2556 70.3743 87.3784 69.5991 87.5102 68.7678C90.1202 69.1815 92.6749 69.5863 95.3002 70.0024C95.1721 70.8105 95.0489 71.5875 94.904 72.5022C93.8737 72.3389 92.8778 72.1811 91.7979 72.0099C91.4291 74.3372 91.0814 76.5308 90.7335 78.7263C90.5305 80.0072 90.4855 80.0319 89.0979 79.5319C89.4959 77.0205 89.8976 74.4858 90.322 71.8078C89.2062 71.629 88.1855 71.4672 87.1094 71.2967Z" fill="#340AAB"/>
<path d="M143.096 80.134C142.174 79.9879 141.422 79.8369 140.662 79.7582C140.042 79.6937 139.816 79.4453 139.97 78.8143C140.099 78.2903 140.15 77.7461 140.245 77.1415C142.895 77.5615 145.452 77.9667 148.094 78.3855C147.974 79.1451 147.852 79.9183 147.707 80.829C146.721 80.6727 145.727 80.5152 144.582 80.3338C144.417 81.3724 144.273 82.2812 144.129 83.1901C143.922 84.4961 143.717 85.8045 143.508 87.1102C143.306 88.3734 143.236 88.4099 141.869 87.8774C142.267 85.3622 142.669 82.8256 143.096 80.134Z" fill="#340AAB"/>
<path d="M60.1774 64.4394C60.5723 64.502 60.973 64.5655 61.5034 64.6496C61.1011 67.1881 60.6963 69.7421 60.2722 72.4182C62.0847 72.7055 63.777 72.9737 65.5456 73.254C65.404 74.1473 65.2812 74.9224 65.1313 75.8681C64.1945 75.7196 63.2272 75.5663 62.2599 75.413C61.2144 75.2473 60.1608 75.1201 59.1298 74.8872C58.8824 74.832 58.5051 74.3988 58.5361 74.1912C58.9934 71.0336 59.5081 67.8852 60.0151 64.7355C60.0289 64.6483 60.1015 64.5724 60.1774 64.4394Z" fill="#340AAB"/>
<path d="M114.898 75.7012C114.614 77.4937 114.339 79.2319 114.054 81.0302C114.428 81.1391 114.757 81.235 115.237 81.3747C115.139 81.9967 115.08 82.629 114.917 83.2349C114.868 83.4179 114.517 83.6602 114.333 83.6389C113.253 83.5155 112.181 83.3217 111.032 83.1397C111.163 82.3161 111.28 81.5739 111.409 80.7639C111.779 80.7749 112.148 80.7858 112.579 80.7984C112.859 79.0272 113.135 77.289 113.423 75.4694C113.077 75.3589 112.721 75.245 112.301 75.1108C112.418 74.3725 112.537 73.6206 112.669 72.7854C113.894 72.9795 115.138 73.1767 116.447 73.3841C116.328 74.1321 116.214 74.8549 116.084 75.6746C115.739 75.6814 115.374 75.6891 114.898 75.7012Z" fill="#340AAB"/>
<path d="M127.117 89.5344C126.988 90.3502 126.874 91.073 126.75 91.8559C126.349 91.854 125.979 91.853 125.546 91.8498C125.264 93.6268 124.985 95.3883 124.699 97.1924C125.071 97.301 125.402 97.3971 125.811 97.5157C125.693 98.2617 125.576 99.0039 125.435 99.8914C124.313 99.7136 123.181 99.554 122.059 99.3346C121.912 99.3052 121.71 98.9694 121.723 98.7887C121.766 98.1856 121.894 97.5881 121.996 96.9448C122.42 96.9484 122.762 96.9509 123.193 96.9557C123.47 95.2098 123.749 93.4522 124.038 91.6268C123.703 91.5161 123.352 91.4009 122.949 91.2674C123.071 90.4962 123.19 89.7482 123.319 88.9324C124.584 89.1328 125.799 89.3255 127.117 89.5344Z" fill="#340AAB"/>
</svg>
