<svg width="127" height="94" viewBox="0 0 127 94" fill="none" xmlns="http://www.w3.org/2000/svg">
<circle cx="115.925" cy="18.8141" r="6.29228" transform="rotate(-93.7997 115.925 18.8141)" fill="#340AAB" stroke="#340AAB" stroke-width="0.958635"/>
<circle cx="123.651" cy="3.75838" r="2.4228" transform="rotate(-93.7997 123.651 3.75838)" fill="#340AAB" stroke="#340AAB" stroke-width="0.958635"/>
<path d="M111.391 35.2537C113.565 44.6911 109.865 54.5992 102.009 63.0022C94.1553 71.4026 82.1825 78.2536 67.9456 81.5335C53.7086 84.8135 39.9451 83.8918 29.2076 79.7745C18.4668 75.6559 10.8045 68.3656 8.6303 58.9281C6.45605 49.4906 10.156 39.5826 18.012 31.1796C25.8656 22.7792 37.8385 15.9282 52.0754 12.6482C66.3124 9.36826 80.0759 10.2899 90.8134 14.4073C101.554 18.5258 109.216 25.8162 111.391 35.2537Z" fill="#340AAB" stroke="#340AAB" stroke-width="0.958635"/>
<path d="M98.2277 52.6809L95.2642 53.5802C95.023 53.6526 94.7671 53.5153 94.6944 53.2729L91.6697 43.1837C91.5975 42.943 91.7325 42.6884 91.9731 42.6145L94.9772 41.7013C95.2194 41.6269 95.4743 41.7663 95.5474 42.0102L98.5316 52.1133C98.6043 52.3556 98.4673 52.609 98.2277 52.6809Z" fill="#FFC555"/>
<path d="M98.8305 58.767C98.5133 58.8034 98.1961 58.8744 97.8797 58.8675C97.672 58.8624 97.4409 58.785 97.2655 58.6702C96.2215 57.9959 96.3026 56.3247 97.3952 55.7691C97.5369 55.6972 97.692 55.6472 97.846 55.5993C99.3422 55.135 99.9418 55.782 100.142 57.1945C100.253 57.964 99.8132 58.429 98.8305 58.767Z" fill="#FFC555"/>
<path d="M97.1207 35.2696C92.2376 36.7344 87.3751 38.1929 82.4841 39.66C80.8508 34.215 79.2203 28.7794 77.5799 23.3105C82.2927 21.8969 86.9945 20.4865 91.7262 19.0672C92.1015 20.3184 92.474 21.5601 92.8621 22.854C92.7037 22.9102 92.5441 22.9736 92.3802 23.0228C88.705 24.1269 85.0309 25.229 81.3552 26.3316C80.8429 26.4852 80.8418 26.4873 80.9948 26.9973C81.1606 27.55 81.3437 28.0976 81.4854 28.6558C81.57 28.9895 81.71 29.0494 82.0358 28.9499C85.4722 27.9088 88.9124 26.8803 92.3501 25.8491C92.5172 25.799 92.6858 25.7484 92.8797 25.6903C93.2151 26.8084 93.5362 27.8791 93.8707 28.994C93.7076 29.0516 93.5463 29.1155 93.3808 29.1651C89.9547 30.1946 86.5315 31.2283 83.1017 32.2399C82.6961 32.3598 82.6205 32.5085 82.755 32.8997C83.0103 33.6363 83.2129 34.392 83.4529 35.1918C87.6392 33.9361 91.7909 32.6907 95.971 31.4368C96.3615 32.7387 96.7373 33.9915 97.1207 35.2696Z" fill="#FFC555"/>
<path d="M60.4612 69.8166C58.6483 70.3707 56.8024 70.6603 54.9071 70.4071C51.8433 69.9986 49.7251 68.3208 48.4985 65.5089C47.8547 64.0327 47.5151 62.4824 47.6281 60.8603C47.8088 58.284 49.0699 56.3141 51.1434 54.8704C53.6746 53.1081 56.5207 52.2182 59.5981 52.2083C63.7288 52.1932 66.6564 54.4845 67.7841 58.5017C68.295 60.325 68.4027 62.1502 67.7399 63.9614C66.9958 65.9938 65.5569 67.4284 63.7056 68.4446C62.6789 69.0081 61.573 69.4278 60.5033 69.911C60.4886 69.8791 60.4743 69.8489 60.4612 69.8166ZM59.1687 65.6279C59.1848 65.6645 59.2009 65.7011 59.2186 65.7372C60.4489 65.1765 61.7018 64.6626 62.8996 64.0392C63.9022 63.5157 64.7574 62.7758 65.3293 61.767C66.3365 59.9872 65.6676 57.809 63.8361 56.8979C62.9817 56.4723 62.0635 56.3265 61.1241 56.339C58.3146 56.3773 55.6975 57.1658 53.2301 58.4705C52.1918 59.0184 51.2657 59.7226 50.6112 60.7251C49.4149 62.5617 50.0592 64.9216 52.0566 65.8243C52.6787 66.1055 53.3905 66.2563 54.074 66.324C55.8185 66.4982 57.5045 66.1167 59.1687 65.6279Z" fill="#FFC555"/>
<path d="M63.9106 45.2552C63.0831 45.5034 62.3168 45.7436 61.541 45.9522C61.4439 45.9779 61.2741 45.8527 61.1795 45.7551C60.5503 45.1066 59.9244 44.4519 59.3139 43.7856C59.1302 43.5853 58.963 43.5491 58.7049 43.6282C54.7968 44.8092 50.8878 45.9817 46.9749 47.1468C46.718 47.2239 46.5944 47.3386 46.5515 47.6139C46.4076 48.5202 46.2372 49.4241 46.0659 50.3248C46.0432 50.4439 45.9745 50.6216 45.8851 50.6501C45.1363 50.8972 44.3785 51.1141 43.5636 51.3586C43.5862 51.1705 43.5922 51.053 43.6143 50.9377C44.7232 44.8979 45.8357 38.8588 46.9394 32.8188C46.987 32.5594 47.0756 32.4137 47.3466 32.3376C48.3349 32.0584 49.3186 31.7582 50.2997 31.4552C50.5199 31.3874 50.674 31.4086 50.8434 31.5839C55.1465 36.078 59.4553 40.5686 63.7622 45.058C63.7955 45.0947 63.8249 45.1411 63.9106 45.2552ZM47.4641 42.8155C50.2934 41.9668 53.0848 41.1295 55.9378 40.2737C54.7637 39.0515 53.6496 37.8631 52.4935 36.7184C52.288 36.5142 51.8996 36.4166 51.5941 36.4116C50.6737 36.3959 49.8164 36.6824 49.0213 37.1419C48.5923 37.3897 48.344 37.7646 48.2569 38.2533C48.003 39.6691 47.7434 41.0831 47.4874 42.4978C47.4713 42.5872 47.4733 42.6798 47.4641 42.8155Z" fill="#FFC555"/>
<path d="M40.4067 52.2806C39.647 52.5084 38.9078 52.7302 38.1165 52.9675C37.4643 50.793 36.8196 48.6438 36.1682 46.4724C32.015 47.7182 27.9121 48.9489 23.762 50.1938C24.4114 52.3589 25.0561 54.5081 25.717 56.7111C24.9667 56.9362 24.2651 57.1518 23.5568 57.3505C23.4933 57.3678 23.3681 57.2828 23.3191 57.2111C23.2591 57.1256 23.2474 57.0065 23.2156 56.9004C21.6778 51.7736 20.1395 46.6453 18.6016 41.5186C18.4496 41.0118 18.4496 41.0118 18.9682 40.8562C19.4016 40.7262 19.8351 40.5962 20.2685 40.4662C20.7887 40.3101 20.7887 40.3101 20.9512 40.8518C21.4324 42.4562 21.9132 44.059 22.3945 45.6634C22.4372 45.8059 22.4804 45.95 22.5341 46.129C26.6716 44.8879 30.7839 43.6544 34.9514 42.4043C34.9034 42.2443 34.8573 42.0907 34.8112 41.9371C34.3181 40.2931 33.8333 38.6483 33.326 37.0086C33.2274 36.6912 33.2691 36.544 33.6107 36.4571C34.233 36.2981 34.8441 36.0958 35.4935 35.901C37.1325 41.3651 38.763 46.8006 40.4067 52.2806Z" fill="#FFC555"/>
<path d="M70.5658 54.6148C70.0613 52.9328 69.5631 51.2489 69.0459 49.5707C68.955 49.2734 68.9854 49.1228 69.3149 49.0412C69.8064 48.9214 70.2955 48.7764 70.7713 48.6043C71.106 48.4832 71.218 48.5929 71.3114 48.9101C72.156 51.7659 73.0526 54.606 73.8573 57.4719C74.2921 59.0246 74.65 59.6164 76.8963 59.6763C78.7287 59.7257 80.4717 59.2132 82.1897 58.6288C83.3869 58.2214 84.5435 57.7243 85.5565 56.9491C85.8377 56.7353 86.0971 56.4831 86.3277 56.2154C86.8079 55.6571 86.9421 55.0333 86.719 54.301C85.7925 51.2696 84.8975 48.2287 83.9731 45.1984C83.8551 44.8109 83.8916 44.629 84.3187 44.5406C84.7734 44.4473 85.2189 44.2999 85.6562 44.1428C85.9741 44.0285 86.1065 44.0975 86.2047 44.4306C86.8765 46.7219 87.5736 49.0056 88.2528 51.2929C88.5765 52.3835 88.9478 53.4667 89.1866 54.5776C89.7564 57.2274 88.9142 59.4429 86.79 61.0554C83.9756 63.1909 80.7524 64.1525 77.2208 63.7135C74.7115 63.401 72.9561 61.9648 72.105 59.5685C71.5275 57.9412 71.0963 56.2631 70.5999 54.608C70.5879 54.6082 70.5769 54.6115 70.5658 54.6148Z" fill="#FFC555"/>
<path d="M72.2522 42.7284C71.4594 42.9662 70.7186 43.1885 69.9352 43.4234C69.8741 43.2484 69.8106 43.088 69.7607 42.9217C68.6199 39.1242 67.4764 35.3293 66.3497 31.5275C66.2401 31.1565 66.1132 31.0599 65.7285 31.1805C63.8065 31.7777 61.8744 32.3469 59.9447 32.924C59.7902 32.9704 59.6342 33.0172 59.4545 33.0711C59.3963 32.9401 59.3432 32.849 59.3132 32.7492C58.979 31.6462 58.6573 30.5395 58.312 29.4398C58.2266 29.1668 58.284 29.0546 58.5604 28.9735C63.6266 27.4607 68.6904 25.94 73.7542 24.4193C73.9576 24.3583 74.1097 24.3213 74.1892 24.5979C74.5315 25.7847 74.8906 26.9648 75.2423 28.1489C75.2533 28.1853 75.2457 28.229 75.2481 28.3111C75.1049 28.361 74.9559 28.4195 74.8014 28.4658C72.8868 29.0419 70.9697 29.6152 69.0551 30.1912C68.5365 30.3468 68.5349 30.3473 68.6865 30.8525C69.8257 34.6504 70.9645 38.4468 72.1037 42.2447C72.1529 42.3974 72.199 42.551 72.2522 42.7284Z" fill="#FFC555"/>
<path d="M26.726 61.8253C27.6922 61.5354 28.5395 61.2674 29.3983 61.0375C29.5285 61.0019 29.732 61.1134 29.861 61.2111C31.614 62.5307 33.3671 63.8503 35.1033 65.1939C35.7009 65.6568 36.3512 65.826 37.0689 65.6815C37.5614 65.5821 38.0511 65.4335 38.5179 65.2485C39.2028 64.9775 39.6445 64.4739 39.8906 63.7596C40.6048 61.6844 41.3555 59.6224 42.0754 57.549C42.172 57.2697 42.3208 57.1301 42.6017 57.0528C43.3635 56.8432 44.1183 56.6047 44.9679 56.3499C44.8939 56.5844 44.8515 56.7352 44.7978 56.8826C43.322 61.0005 41.8394 65.1188 40.3775 69.243C40.2902 69.4902 40.2855 69.8126 40.3584 70.067C40.8057 71.6384 41.2798 73.2018 41.7613 74.7612C41.8562 75.0659 41.8043 75.2023 41.4837 75.2847C40.8781 75.4422 40.2823 75.6381 39.6314 75.8334C39.5748 75.6449 39.5325 75.504 39.4907 75.3646C39.0332 73.8394 38.5679 72.3166 38.1245 70.7871C38.0317 70.4663 37.8733 70.2358 37.6067 70.0344C34.1519 67.4403 30.7031 64.8375 27.2543 62.2347C27.1064 62.1255 26.9593 62.0073 26.726 61.8253Z" fill="#FFC555"/>
</svg>
