<svg width="93" height="93" viewBox="0 0 93 93" fill="none" xmlns="http://www.w3.org/2000/svg">
<circle r="45.5351" transform="matrix(-1 0 0 1 46.7733 46.514)" fill="#340AAB" stroke="#340AAB" stroke-width="0.958635"/>
<mask id="mask0" mask-type="alpha" maskUnits="userSpaceOnUse" x="13" y="13" width="38" height="67">
<path d="M14.3852 46.5142C14.3852 55.5243 16.4209 63.6577 19.688 69.5217C22.964 75.4016 27.4135 78.9023 32.2177 78.9023C37.022 78.9023 41.4715 75.4016 44.7475 69.5217C48.0145 63.6577 50.0503 55.5243 50.0503 46.5142C50.0503 37.5041 48.0145 29.3706 44.7475 23.5067C41.4715 17.6267 37.022 14.126 32.2177 14.126C27.4135 14.126 22.964 17.6267 19.688 23.5067C16.4209 29.3706 14.3852 37.5041 14.3852 46.5142Z" fill="#FFA37B" stroke="#340AAB" stroke-width="0.958635"/>
</mask>
<g mask="url(#mask0)">
<path d="M48.7218 60.6465C48.8893 60.6465 49.0434 60.5494 49.1104 60.3953C51.147 55.8999 55.4548 46.3764 56.8282 43.3381C57.88 46.3395 59.4377 51.9101 59.4544 51.97C59.508 52.161 59.6822 52.2983 59.8865 52.2816C66.6228 51.9901 72.6389 51.8361 78.3063 51.8528C78.5441 51.8528 78.735 51.6619 78.735 51.424C78.735 51.1862 78.5441 50.9953 78.3063 50.9953C72.7625 51.002 66.8033 51.1259 60.1909 51.4106C59.7856 49.9736 58.1743 44.3293 57.2666 42.0481C57.2029 41.8873 57.0488 41.7835 56.878 41.7768C56.734 41.7768 56.5464 41.8706 56.476 42.028C56.476 42.028 51.4581 53.1288 48.8219 58.9505C47.6428 54.6227 43.4489 39.2445 41.8444 33.3018C41.7975 33.1242 41.6434 32.9969 41.4592 32.9869C41.2615 32.9802 41.1041 33.0807 41.0338 33.2515L39.9618 35.8241C39.3086 38.3498 34.3075 48.9546 33.4499 50.764C28.5291 50.4559 20.7576 50.553 14.8158 50.9985C14.5813 51.0153 14.4037 51.2229 14.4205 51.4574C14.4372 51.6919 14.6516 51.8728 14.8794 51.8527C20.9089 51.4005 28.8177 51.31 33.6851 51.6383C33.8593 51.6484 34.0267 51.5546 34.1004 51.3938C34.345 50.8846 40.063 38.8661 40.7731 36.0954L41.3425 34.7355C43.4495 42.5236 48.3066 60.3276 48.3066 60.3276C48.3535 60.5018 48.5043 60.6291 48.6851 60.6425C48.6985 60.6459 48.7119 60.6459 48.722 60.6459L48.7218 60.6465Z" fill="#2FF89A"/>
</g>
</svg>
