<svg width="102" height="93" viewBox="0 0 102 93" fill="none" xmlns="http://www.w3.org/2000/svg">
<path d="M82.9785 10.4403L82.9981 10.4505C93.0276 15.8217 101.456 29.0044 96.084 46.269C91.2439 60.3838 79.5824 70.4121 68.8676 76.9699C58.1516 83.5283 48.4636 86.5664 47.7045 86.7353L47.6286 86.7522L47.5619 86.7922C47.5035 86.8273 47.388 86.8576 47.215 86.8644C47.0525 86.8707 46.8952 86.855 46.782 86.8433C46.6274 86.8274 46.4537 86.8087 46.2974 86.7697C46.1421 86.7309 46.0861 86.691 46.0768 86.6844C46.0755 86.6835 46.0751 86.6832 46.0755 86.6836L46.0041 86.5959L45.9011 86.5493C45.1889 86.2271 36.2425 81.3405 27.0525 72.7678C17.8613 64.1939 8.49426 51.9957 6.80442 37.056C4.84269 19.0078 15.5395 7.57727 26.345 4.59748L26.345 4.59752L26.3513 4.5957C36.9289 1.52304 47.2663 5.91669 53.3906 16.1179L53.7182 16.6636L54.1522 16.1979C62.2227 7.53654 73.2417 5.34522 82.9785 10.4403Z" fill="#FDC1ED" stroke="#340AAB" stroke-width="0.958635"/>
<path d="M42.7869 55.1035C43.0561 53.6231 43.3765 52.1881 44.0847 50.8611C45.826 47.6015 48.9174 47.1163 51.5044 47.8618C53.4552 48.4243 54.7774 49.7077 55.3705 51.6027C56.3804 54.8298 56.0691 57.9961 54.465 60.9642C53.2175 63.2745 51.007 64.2813 48.3874 63.9415C45.3295 63.5457 43.356 61.5483 42.9438 58.3367C42.8085 57.2715 42.8354 56.1829 42.7869 55.1035ZM48.9056 59.9877C49.5672 59.9247 50.2597 59.9391 50.9091 59.7838C52.6852 59.362 53.7199 57.9096 53.779 55.8781C53.8373 53.8681 52.916 52.5211 51.0184 51.91C50.0131 51.5871 48.9737 51.52 47.9353 51.7432C46.6985 52.0092 45.7706 52.6976 45.3165 53.878C45.0959 54.4511 44.9565 55.0804 44.9259 55.6931C44.8421 57.347 45.4631 58.6707 47.04 59.3969C47.6136 59.6598 48.2542 59.7861 48.9056 59.9877Z" fill="#340AAB"/>
<path d="M60.9516 49.0454C60.9306 49.2486 60.9152 49.3982 60.8999 49.5464C60.6017 52.4362 60.3035 55.3261 60.0052 58.2159C59.8659 59.5661 60.2972 60.3516 61.5557 60.8828C62.7934 61.4057 64.0935 61.5337 65.408 61.2371C66.6287 60.9617 67.2128 60.2656 67.342 59.0286C67.6457 56.1007 67.9525 53.1732 68.2422 50.2454C68.276 49.9031 68.3725 49.7803 68.7325 49.8422C69.2009 49.9214 69.6771 49.9551 70.1513 49.9932C70.3699 50.0111 70.469 50.0738 70.4436 50.3198C70.0942 53.601 69.7846 56.8864 69.386 60.1626C69.2862 60.9797 68.9975 61.8067 68.6348 62.5534C67.5999 64.6834 65.6989 65.6542 63.1473 65.4681C59.9684 65.2373 57.9525 63.2294 57.7754 60.0867C57.7399 59.4533 57.7595 58.8116 57.8215 58.1804C58.1122 55.2127 58.432 52.2494 58.7243 49.2818C58.7601 48.9196 58.8653 48.8023 59.2379 48.8624C59.7802 48.9477 60.3325 48.9815 60.9516 49.0454Z" fill="#340AAB"/>
<path d="M30.7991 45.9366C31.6225 46.0215 32.387 46.0896 33.1479 46.1928C33.2474 46.2062 33.3534 46.3977 33.4007 46.5261C33.9195 47.9381 34.4284 49.3552 34.9389 50.7709C35.3411 51.8837 36.7547 52.4464 37.8154 51.8859C38.0502 51.7619 38.2599 51.5351 38.403 51.3075C39.2415 49.9815 40.0639 48.6462 40.8762 47.3037C41.0148 47.0741 41.1556 46.9883 41.4282 47.0241C42.0867 47.1122 42.7502 47.1667 43.4829 47.2423C43.3648 47.4386 43.2867 47.5787 43.1999 47.7133C41.2486 50.766 39.2945 53.8153 37.352 56.8735C37.2221 57.0793 37.1335 57.3357 37.1069 57.5784C36.9346 59.0981 36.7778 60.6178 36.6346 62.1406C36.6071 62.4372 36.5147 62.5357 36.2075 62.4886C35.7384 62.4155 35.2624 62.3648 34.7881 62.3421C34.4529 62.326 34.3972 62.1891 34.4301 61.8853C34.5995 60.3792 34.7552 58.8701 34.8954 57.361C34.9174 57.1178 34.8877 56.8492 34.8025 56.6212C33.5185 53.193 32.2215 49.7696 30.9293 46.3452C30.8869 46.2297 30.8541 46.1105 30.7991 45.9366Z" fill="#340AAB"/>
<path d="M67.7008 29.3186C67.8683 29.3359 67.9942 29.3489 68.1202 29.3619C71.1509 29.6746 74.1825 29.9936 77.2146 30.2926C77.5757 30.3283 77.6552 30.4461 77.612 30.789C77.4925 31.7368 77.3912 32.6881 77.3193 33.6408C77.2926 33.99 77.1638 34.0493 76.8385 34.0126C74.5249 33.7615 72.2093 33.5288 69.8929 33.2897C69.7409 33.274 69.5903 33.2585 69.3829 33.2371C69.301 34.0314 69.2184 34.7869 69.1542 35.5444C69.1494 35.6057 69.2538 35.7075 69.3282 35.7384C69.431 35.7799 69.5544 35.7725 69.6696 35.7844C71.8186 36.0062 73.9676 36.2279 76.1166 36.4497C76.2794 36.4665 76.4407 36.4831 76.6174 36.5014C76.5047 37.5935 76.3981 38.626 76.2864 39.7089C76.102 39.6899 75.9392 39.6731 75.7764 39.6563C73.6013 39.4318 71.4268 39.2167 69.2534 38.9754C68.882 38.934 68.759 39.0278 68.735 39.3958C68.6873 40.1288 68.5917 40.8599 68.5111 41.6404C71.2346 41.9214 73.912 42.1977 76.614 42.4765C76.4852 43.7244 76.3616 44.9219 76.2343 46.156C72.8534 45.8072 69.474 45.4584 66.07 45.1072C66.6134 39.8561 67.1544 34.6141 67.7008 29.3186Z" fill="#340AAB"/>
<path d="M38.032 34.1318C38.2108 32.6698 38.5315 31.2473 39.2354 29.9321C40.9816 26.67 44.0815 26.1918 46.6589 26.9409C48.7027 27.5346 50.0264 28.9093 50.5937 30.9036C51.4939 34.0652 51.1856 37.1578 49.6097 40.0486C48.3517 42.3547 46.1475 43.3606 43.5267 43.0176C40.483 42.6201 38.514 40.6387 38.0953 37.4448C37.9519 36.3526 37.9829 35.2397 37.9338 34.1355C37.9681 34.1344 37.9993 34.133 38.032 34.1318ZM44.0512 39.0628C44.7236 39.001 45.4022 39.0139 46.0416 38.8653C47.8073 38.4532 48.8408 37.0285 48.9235 35.0087C49 33.1688 48.2056 31.8102 46.6499 31.165C45.5186 30.6948 44.337 30.5759 43.1361 30.8101C41.8654 31.0587 40.9171 31.7636 40.4536 32.9754C40.2346 33.5486 40.098 34.1798 40.0705 34.7929C39.9946 36.4306 40.6102 37.746 42.1722 38.466C42.7577 38.7348 43.4088 38.8638 44.0512 39.0628Z" fill="#340AAB"/>
<path d="M52.6068 27.7636C53.3657 27.8419 54.0552 27.8992 54.7406 27.9977C54.8415 28.0127 54.9687 28.2095 54.9941 28.3388C55.3687 30.29 55.7275 32.2443 56.0893 34.1988C56.3604 35.664 56.6267 37.1301 56.9009 38.5956C57.0038 39.148 57.2167 39.3568 57.7786 39.4626C57.9537 39.4961 58.1355 39.5087 58.3147 39.5179C58.8369 39.5425 59.1867 39.327 59.3856 38.8288C60.1891 36.8185 61.0078 34.8129 61.8218 32.8068C62.3094 31.6021 62.7999 30.3992 63.2799 29.1922C63.3658 28.9773 63.4639 28.8685 63.7273 28.9034C64.3612 28.9889 65.0017 29.0411 65.699 29.1131C65.4193 29.8082 65.1616 30.4546 64.898 31.0989C63.1214 35.437 61.3404 39.773 59.5699 44.1133C59.4658 44.3696 59.3479 44.4593 59.0626 44.4252C58.0553 44.3028 57.0435 44.1937 56.0318 44.114C55.6791 44.0869 55.5353 43.9763 55.4717 43.6147C54.9147 40.4668 54.3326 37.3225 53.7598 34.1776C53.3938 32.1732 53.0294 30.1675 52.6667 28.1619C52.6425 28.0498 52.6307 27.939 52.6068 27.7636Z" fill="#340AAB"/>
<path d="M30.0789 37.5186C32.426 37.7608 34.7117 37.9967 37.0297 38.2359C36.8968 39.5235 36.7669 40.7821 36.6326 42.0834C36.5137 42.0773 36.3896 42.0769 36.2667 42.0642C33.454 41.7755 30.6405 41.479 27.8265 41.2025C27.4776 41.168 27.4123 41.0486 27.4473 40.725C27.9719 35.7313 28.4872 30.7382 28.9916 25.7441C29.0271 25.4004 29.1459 25.317 29.4743 25.3694C29.9432 25.444 30.4192 25.4947 30.8938 25.5143C31.2401 25.5284 31.3124 25.6548 31.2767 25.986C30.8969 29.5467 30.5341 33.1075 30.1665 36.6694C30.1392 36.9336 30.1121 37.1964 30.0789 37.5186Z" fill="#340AAB"/>
</svg>
