<svg version="1.2" baseProfile="tiny-ps" xmlns="http://www.w3.org/2000/svg" viewBox="0 0 385 385" width="192" height="192">
	<title>Page 1</title>
	<defs>
		<clipPath clipPathUnits="userSpaceOnUse" id="cp1">
			<path d="M0 0L385 0L385 385L0 385Z" />
		</clipPath>
		<clipPath clipPathUnits="userSpaceOnUse" id="cp2">
			<path d="M343.65 78.02C350.57 94.5 350.76 113.03 344.17 129.65L344.16 129.65C360.59 136.74 373.57 149.98 380.31 166.55C387.07 183.12 387.05 201.66 380.28 218.21C373.48 234.76 360.49 247.99 344.04 255.05C350.65 271.66 350.48 290.21 343.56 306.71C336.63 323.19 323.52 336.32 307.04 343.25C290.54 350.18 272 350.36 255.38 343.77C248.29 360.18 235.06 373.17 218.51 379.93C201.96 386.69 183.41 386.69 166.86 379.93C150.31 373.17 137.06 360.18 129.99 343.77C113.37 350.36 94.83 350.18 78.33 343.25C61.85 336.32 48.74 323.19 41.81 306.71C34.89 290.21 34.72 271.67 41.31 255.05C29.09 249.71 18.68 240.94 11.35 229.81C4.03 218.68 0.09 205.65 0 192.32C-0.03 178.95 3.85 165.86 11.18 154.7C18.53 143.51 28.99 134.74 41.27 129.47C34.7 112.84 34.92 94.31 41.86 77.84C48.79 61.38 61.92 48.27 78.38 41.35C94.86 34.44 113.39 34.25 130.01 40.84C135.36 28.64 144.14 18.27 155.25 10.95C166.38 3.64 179.37 -0.28 192.69 -0.37C206.05 -0.4 219.15 3.49 230.31 10.82C241.49 18.16 250.27 28.61 255.53 40.89C272.17 34.34 290.7 34.56 307.16 41.49C323.63 48.42 336.72 61.55 343.65 78.02Z" />
		</clipPath>
	</defs>
	<style>
		tspan { white-space:pre }
		.shp0 { fill: #fcff73 } 
		.shp1 { fill: #340aab } 
	</style>
	<g id="Page 1" clip-path="url(#cp1)">
		<path id="Path 1" class="shp0" d="M343.65 78.02C350.57 94.5 350.76 113.03 344.17 129.65L344.16 129.65C360.59 136.74 373.57 149.98 380.31 166.55C387.07 183.12 387.05 201.66 380.28 218.21C373.48 234.76 360.49 247.99 344.04 255.05C350.65 271.66 350.48 290.21 343.56 306.71C336.63 323.19 323.52 336.32 307.04 343.25C290.54 350.18 272 350.36 255.38 343.77C248.29 360.18 235.06 373.17 218.51 379.93C201.96 386.69 183.41 386.69 166.86 379.93C150.31 373.17 137.06 360.18 129.99 343.77C113.37 350.36 94.83 350.18 78.33 343.25C61.85 336.32 48.74 323.19 41.81 306.71C34.89 290.21 34.72 271.67 41.31 255.05C29.09 249.71 18.68 240.94 11.35 229.81C4.03 218.68 0.09 205.65 0 192.32C-0.03 178.95 3.85 165.86 11.18 154.7C18.53 143.51 28.99 134.74 41.27 129.47C34.7 112.84 34.92 94.31 41.86 77.84C48.79 61.38 61.92 48.27 78.38 41.35C94.86 34.44 113.39 34.25 130.01 40.84C135.36 28.64 144.14 18.27 155.25 10.95C166.38 3.64 179.37 -0.28 192.69 -0.37C206.05 -0.4 219.15 3.49 230.31 10.82C241.49 18.16 250.27 28.61 255.53 40.89C272.17 34.34 290.7 34.56 307.16 41.49C323.63 48.42 336.72 61.55 343.65 78.02Z" />
		<g id="Mask" clip-path="url(#cp2)">
			<path id="Path 3" fill-rule="evenodd" class="shp1" d="M343.41 131.41L344.16 129.65L344.16 129.64L344.16 129.64L344.16 129.65L343.41 131.41L339.47 129.71L342.66 128.23C348.78 112.26 348.51 94.55 341.89 78.76L341.89 78.76C335.15 62.76 322.42 50 306.42 43.26C290.42 36.52 272.41 36.3 256.24 42.67L254.5 43.36L253.77 41.64C248.66 29.71 240.13 19.56 229.26 12.42L229.26 12.42C218.41 5.3 205.68 1.52 192.69 1.55C179.75 1.64 167.12 5.45 156.3 12.56L156.3 12.56C145.5 19.67 136.97 29.75 131.77 41.61L131.03 43.3L129.31 42.62C113.15 36.22 95.14 36.4 79.12 43.12L79.12 43.12C63.12 49.84 50.36 62.59 43.62 78.59C36.89 94.59 36.67 112.6 43.06 128.77L43.74 130.5L42.03 131.24L41.27 129.47L41.27 129.47L42.03 131.24C30.09 136.35 19.93 144.88 12.79 155.75L12.79 155.75C5.66 166.6 1.89 179.32 1.92 192.31C2 205.27 5.83 217.93 12.96 228.75L12.96 228.75C20.08 239.58 30.2 248.11 42.07 253.29L41.31 255.05L41.31 255.05L42.07 253.29L43.77 254.03L43.09 255.75C36.68 271.91 36.85 289.93 43.57 305.97C50.31 321.99 63.05 334.74 79.07 341.48L79.07 341.48C95.11 348.22 113.13 348.39 129.28 341.98L131.02 341.3L131.75 343.01L129.99 343.77L129.99 343.77L131.75 343.01C138.62 358.96 151.5 371.58 167.58 378.15L166.86 379.93L167 379.57L166.86 379.93L167.58 378.15C183.67 384.73 201.7 384.73 217.78 378.15L217.78 378.15C233.87 371.58 246.73 358.96 253.62 343.01L255.38 343.77L255.38 343.77L253.62 343.01L254.35 341.3L256.08 341.98C272.24 348.39 290.26 348.22 306.3 341.48L306.3 341.48C322.31 334.74 335.06 321.99 341.79 305.97L341.79 305.97C348.52 289.93 348.68 271.91 342.26 255.76L341.57 254.02L343.29 253.29C359.27 246.43 371.9 233.57 378.5 217.49L378.5 217.49C385.09 201.4 385.11 183.38 378.53 167.28L378.53 167.27C371.98 151.17 359.37 138.3 343.41 131.41ZM345.33 307.45L343.57 306.71L343.57 306.71L345.33 307.45L345.33 307.45C338.2 324.39 324.73 337.89 307.78 345.02L307.04 343.25L307.04 343.26L307.78 345.02L307.78 345.02C291.39 351.91 273.02 352.3 256.39 346.2C248.94 362.28 235.68 374.98 219.23 381.7L218.34 379.53L219.23 381.7C202.22 388.66 183.15 388.66 166.13 381.7L166.13 381.7C149.69 374.99 136.41 362.28 128.98 346.2C112.34 352.3 93.98 351.91 77.59 345.02L78.33 343.25L78.32 343.27L77.59 345.02L77.59 345.02C60.64 337.89 47.17 324.39 40.04 307.45L40.04 307.45L41.8 306.71L41.81 306.71L40.04 307.45C33.16 291.05 32.77 272.69 38.87 256.05C27.04 250.51 16.95 241.79 9.75 230.86L9.75 230.86L11.18 229.93L11.73 229.56L9.75 230.86C2.22 219.42 -1.83 206.04 -1.92 192.33L0 192.32L0 192.32L-1.92 192.33L-1.92 192.33C-1.95 178.58 2.04 165.12 9.58 153.64L11.21 154.71L9.58 153.64C16.79 142.66 26.93 133.94 38.84 128.46C32.76 111.8 33.2 93.46 40.09 77.1C47.22 60.17 60.71 46.7 77.64 39.59L78.38 41.34L78.36 41.31L77.64 39.59L77.64 39.59C94.02 32.71 112.37 32.3 129.01 38.4C134.56 26.59 143.28 16.53 154.2 9.35L154.2 9.35L155.24 10.94L155.26 10.97L154.2 9.35C165.64 1.84 178.99 -2.19 192.67 -2.28L192.68 -2.28L192.68 -2.28C206.42 -2.32 219.88 1.68 231.36 9.21L231.36 9.21L230.31 10.82L230.29 10.85L231.36 9.21C242.35 16.43 251.07 26.55 256.55 38.45C273.2 32.39 291.55 32.84 307.91 39.72C324.84 46.85 338.29 60.35 345.42 77.27L345.42 77.27L343.65 78.02L343.64 78.02L345.42 77.27C352.29 93.65 352.71 112 346.61 128.64C362.7 136.09 375.38 149.37 382.09 165.83L382.09 165.83C389.04 182.86 389.02 201.93 382.05 218.94L382.05 218.94C375.3 235.39 362.6 248.64 346.48 256.06C352.6 272.7 352.2 291.06 345.33 307.45ZM192.68 -2.27L192.69 -0.37L192.69 -0.36L192.68 -2.27ZM9.58 153.64L9.58 153.64L11.18 154.7L9.58 153.64ZM219.23 381.7L219.23 381.7L218.51 379.93L219.23 381.7ZM167.58 378.15L167 379.57L167.58 378.15L167.58 378.15ZM344.17 129.65L344.98 131.39L345.67 131.06L345.95 130.35L344.17 129.65ZM307.16 41.49L306.42 43.26L307.16 41.49Z" />
		</g>
		<path id="Path 5" fill-rule="evenodd" class="shp1" d="M124.28 217.8C124.33 214.12 124.75 210.43 126.25 206.97C128.65 201.43 132.8 198.51 138.76 198.5C144.72 198.48 148.95 201.35 151.32 206.9C153.48 211.96 153.66 217.28 152.99 222.68C152.62 225.65 151.82 228.5 150.25 231.06C147.19 236.06 142.6 237.8 137.06 237.25C131.88 236.74 128.38 233.79 126.3 229.02C124.75 225.48 124.32 221.72 124.28 217.8ZM125.74 217.86C125.81 217.88 125.89 217.9 125.95 217.92C126.05 219.17 126.11 220.43 126.26 221.67C126.92 227.16 129.73 230.92 134.56 232C136.91 232.52 139.47 232.53 141.87 232.24C146.7 231.66 149.68 228.65 150.93 223.89C151.9 220.18 151.91 216.42 151.11 212.69C150.01 207.55 146.86 204.35 141.94 203.64C139.9 203.34 137.74 203.34 135.7 203.64C131.4 204.25 128.34 206.71 127.05 211.01C126.38 213.22 126.16 215.57 125.74 217.86ZM165.64 164.03C165.65 160.47 166.18 156.25 168.26 152.39C170.84 147.61 174.89 145.33 180.19 145.35C185.43 145.37 189.64 147.55 191.94 152.41C195.77 160.5 195.76 168.82 192.06 176.93C189.59 182.33 184.95 184.47 179.21 184.17C173.74 183.89 169.97 181.06 167.71 176.06C166.09 172.48 165.64 168.67 165.64 164.03ZM193.12 165.53C192.91 163.36 192.85 161.89 192.62 160.44C191.76 154.9 188.6 151.4 183.43 150.51C181.56 150.19 179.58 150.19 177.68 150.39C172.6 150.89 169.25 153.94 168 159C167.03 162.93 167.04 166.89 168.06 170.81C169.16 175.08 171.75 178.08 176.08 178.91C178.45 179.37 180.99 179.37 183.4 179.07C187.68 178.52 190.64 175.96 191.92 171.73C192.58 169.52 192.81 167.17 193.12 165.53Z" />
		<path id="Path 6" fill-rule="evenodd" class="shp1" d="M137.19 183.55C137.19 171.13 137.19 158.71 137.19 146.22C137.5 146.18 137.77 146.12 138.05 146.12C141.38 146.11 144.71 146.04 148.03 146.16C149.66 146.22 151.33 146.48 152.87 146.97C157 148.29 159.62 151.81 159.83 156.23C159.9 157.81 159.87 159.44 159.55 160.97C158.53 165.83 155.15 168.69 150.28 169.05C149.97 169.07 149.66 169.12 149.05 169.19C152.79 174.05 156.39 178.73 160.09 183.53C158.71 183.84 157.77 183.82 156.92 182.65C153.81 178.42 150.58 174.3 147.44 170.1C146.88 169.35 146.29 169.05 145.38 169.08C143.65 169.15 141.92 169.15 140.2 169.08C139.25 169.05 139.02 169.41 139.03 170.32C139.06 174.25 139.04 178.2 139.04 182.13C139.03 183.82 138.97 183.87 137.19 183.55ZM139.12 164.58C142.85 164.58 146.49 164.62 150.13 164.55C151.18 164.53 152.25 164.27 153.27 163.99C156.54 163.09 158.17 160.95 158.19 157.66C158.21 154.35 156.65 152.18 153.37 151.27C148.7 149.97 143.92 150.75 139.12 150.51C139.12 155.32 139.12 159.94 139.12 164.58ZM219.42 199.43C223.54 199.43 227.45 199.19 231.32 199.5C235.82 199.85 239.27 202.35 241.16 206.52C244.69 214.33 244.73 222.28 240.95 230.02C238.84 234.33 235.07 236.5 230.39 236.76C227.07 236.94 223.74 236.8 220.42 236.87C219.29 236.89 219.42 236.19 219.42 235.47C219.42 224.79 219.42 214.1 219.42 203.42C219.42 202.09 219.42 200.76 219.42 199.43ZM221.39 232.27C224.96 232.27 228.37 232.48 231.76 232.22C236.56 231.86 239.95 228.77 241.22 224C242.28 219.99 242.28 215.95 241.17 211.96C240.13 208.24 237.85 205.63 234.18 204.45C230.01 203.11 225.72 203.89 221.39 203.66C221.39 213.34 221.39 222.83 221.39 232.27ZM61.42 229.61C63.66 230.46 65.75 231.46 67.95 232.03C71.47 232.94 75.05 232.86 78.52 231.66C81.93 230.48 83.39 227.73 82.38 224.65C81.85 223.05 80.75 221.86 79.31 221.2C76.84 220.06 74.29 219.13 71.78 218.13C69.98 217.42 68.12 216.85 66.39 215.99C62.47 214.04 60.92 211.05 61.45 206.82C61.95 202.89 64.6 199.92 68.46 198.99C72.94 197.91 77.06 198.83 80.98 201.2C82.37 202.04 83.13 203.04 82.81 204.74C82.75 205.1 82.8 205.48 82.8 206.09C82.29 205.83 81.94 205.66 81.6 205.5C77.01 203.27 72.24 202.76 67.32 204.05C64.39 204.82 62.92 206.74 63.12 209.27C63.25 210.94 64.06 212.3 65.42 213.09C67.41 214.24 69.51 215.21 71.62 216.09C73.89 217.05 76.29 217.69 78.54 218.69C83.02 220.69 84.71 223.48 84.42 227.94C84.14 232.14 81.48 235.51 77.25 236.69C71.89 238.19 66.94 237.19 62.47 233.76C61.68 233.15 61.27 232.47 61.4 231.43C61.47 230.81 61.42 230.18 61.42 229.61Z" />
		<path id="Path 7" fill-rule="evenodd" class="shp1" d="M107.9 146.34C112.08 146.34 116.16 146.02 120.18 146.41C125.86 146.96 129.39 150.83 129.94 156.62C130.11 158.42 130 160.33 129.62 162.1C128.55 167.23 124.92 170.28 119.78 170.51C116.95 170.63 114.11 170.55 111.28 170.57C110.83 170.57 110.39 170.57 109.78 170.57C109.78 174.99 109.78 179.27 109.78 183.63C109.06 183.63 108.51 183.63 107.9 183.63C107.9 171.13 107.9 158.71 107.9 146.34ZM109.85 166.06C110.17 166.1 110.36 166.14 110.57 166.14C113.35 166.12 116.15 166.15 118.93 166.03C120.32 165.98 121.72 165.77 123.05 165.39C126.66 164.37 128.4 161.94 128.37 158.24C128.34 154.61 126.59 152.26 123 151.25C118.69 150.05 114.3 150.71 109.85 150.52C109.85 155.77 109.85 160.86 109.85 166.06ZM274.5 229.1C274.5 219.16 274.5 209.29 274.5 199.34C275.15 199.34 275.7 199.34 276.33 199.34C276.33 211.79 276.33 224.21 276.33 236.83C275.3 236.83 274.28 236.94 273.3 236.78C272.9 236.72 272.5 236.14 272.27 235.71C267.53 226.94 262.82 218.17 258.1 209.39C256.76 206.9 256.39 206.71 253.38 207.08C253.38 207.57 253.38 208.1 253.38 208.62C253.38 217.5 253.38 226.38 253.38 235.26C253.38 236.97 253.34 237 251.54 236.71C251.54 224.3 251.54 211.88 251.54 199.27C252.51 199.27 253.49 199.16 254.43 199.32C254.82 199.38 255.2 199.99 255.44 200.43C260.18 209.23 264.9 218.05 269.64 226.86C270.9 229.22 271.63 229.57 274.5 229.1ZM114.44 236.67C114.44 231.02 114.44 225.34 114.44 219.52C113.93 219.49 113.54 219.44 113.14 219.44C107.06 219.43 100.98 219.46 94.91 219.41C93.89 219.41 93.57 219.69 93.58 220.74C93.63 225.56 93.6 230.37 93.6 235.19C93.6 235.69 93.6 236.18 93.6 236.76C92.94 236.76 92.42 236.76 91.79 236.76C91.79 224.31 91.79 211.86 91.79 199.33C92.35 199.33 92.9 199.33 93.61 199.33C93.61 204.56 93.61 209.73 93.61 214.98C94.17 215.01 94.57 215.04 94.97 215.04C100.97 215.05 106.97 215.01 112.96 215.08C114.21 215.09 114.44 214.67 114.43 213.51C114.37 209.28 114.4 205.05 114.4 200.82C114.4 200.36 114.4 199.91 114.4 199.35C115.06 199.35 115.61 199.35 116.31 199.35C116.33 199.77 116.37 200.21 116.37 200.65C116.37 212.21 116.37 223.77 116.37 235.33C116.37 236.99 116.28 237.05 114.44 236.67ZM183.06 199.31C183.79 199.31 184.32 199.31 184.9 199.31C184.95 199.63 185.02 199.91 185.02 200.18C185.01 207.98 185.03 215.77 184.99 223.56C184.97 226.28 184.4 228.89 183.15 231.31C180.81 235.81 176.55 237.86 170.86 237.25C166.25 236.77 162.62 233.61 161.33 228.67C160.8 226.67 160.51 224.55 160.48 222.48C160.39 215.06 160.44 207.65 160.44 200.23C160.44 199.99 160.48 199.74 160.52 199.38C161.07 199.38 161.61 199.38 162.34 199.38C162.34 199.86 162.34 200.34 162.34 200.83C162.34 207.79 162.32 214.74 162.36 221.69C162.36 223.02 162.49 224.38 162.74 225.68C163.42 229.2 165.57 231.36 168.96 232.2C171.47 232.82 174.01 232.8 176.53 232.2C180.48 231.28 182.92 228.12 183.01 223.54C183.11 218.01 183.05 212.48 183.06 206.95C183.06 204.44 183.06 201.94 183.06 199.31ZM305.69 203.67C302.02 203.67 298.51 203.67 294.96 203.67C294.96 202.14 294.96 200.78 294.96 199.33C302.7 199.33 310.37 199.33 318.25 199.33C318.25 200.61 318.3 201.89 318.2 203.16C318.19 203.36 317.54 203.66 317.18 203.66C314.51 203.71 311.84 203.69 309.17 203.69C308.72 203.69 308.28 203.69 307.69 203.69C307.65 204.31 307.59 204.83 307.59 205.35C307.59 215.32 307.59 225.29 307.59 235.27C307.59 236.98 307.52 237.03 305.68 236.67C305.69 225.74 305.69 214.79 305.69 203.67ZM229.56 179.35C235.44 179.35 241.05 179.35 246.84 179.35C246.84 180.66 246.89 181.86 246.8 183.05C246.79 183.29 246.28 183.67 246 183.68C240.17 183.72 234.34 183.7 228.5 183.72C227.6 183.72 227.67 183.14 227.67 182.54C227.67 178.39 227.67 174.25 227.67 170.1C227.67 162.64 227.67 155.18 227.67 147.73C227.67 147.24 227.67 146.74 227.67 146.19C228.34 146.19 228.85 146.19 229.55 146.19C229.56 157.18 229.56 168.17 229.56 179.35ZM204.41 179.36C210.28 179.36 215.89 179.36 221.67 179.36C221.67 180.67 221.71 181.88 221.63 183.07C221.62 183.3 221.17 183.67 220.93 183.67C214.85 183.71 208.78 183.7 202.61 183.7C202.61 171.17 202.61 158.74 202.61 146.21C203.14 146.21 203.69 146.21 204.41 146.21C204.41 157.18 204.41 168.17 204.41 179.36ZM213.38 232.46C213.38 233.82 213.38 234.99 213.38 236.15C213.38 237.04 212.72 236.85 212.23 236.85C207.59 236.86 202.95 236.86 198.31 236.86C197.01 236.86 195.71 236.86 194.34 236.86C194.34 224.27 194.34 211.86 194.34 199.35C194.91 199.35 195.46 199.35 196.18 199.35C196.18 210.35 196.18 221.34 196.18 232.45C201.95 232.46 207.55 232.46 213.38 232.46ZM245.65 146.25C247.1 145.85 247.81 146.29 248.39 147.56C250.44 151.99 252.68 156.32 254.73 160.76C255.58 162.58 256.86 163.25 258.73 163.26C260.59 163.27 261.9 162.65 262.76 160.82C264.86 156.32 267.15 151.92 269.25 147.42C269.81 146.24 270.47 145.86 271.81 146.26C271.62 146.68 271.45 147.12 271.25 147.54C267.57 155.02 263.88 162.51 260.23 170.01C259.91 170.65 259.75 171.43 259.73 172.15C259.68 175.5 259.71 178.85 259.71 182.2C259.71 182.65 259.71 183.1 259.71 183.62C259 183.62 258.44 183.62 257.76 183.62C257.74 183.14 257.7 182.69 257.7 182.24C257.69 179.27 257.63 176.29 257.72 173.32C257.76 171.76 257.4 170.39 256.71 169.01C253.2 161.91 249.74 154.78 246.27 147.66C246.05 147.21 245.87 146.76 245.65 146.25ZM285.92 199.34C286.94 199.34 287.81 199.34 288.83 199.34C288.7 201.66 288.57 203.89 288.44 206.13C288.36 207.5 288.3 208.88 288.14 210.25C288.11 210.54 287.72 210.97 287.45 211C287.21 211.02 286.69 210.63 286.67 210.38C286.38 206.73 286.16 203.08 285.92 199.34Z" />
	</g>
</svg>