<svg width="91" height="91" viewBox="0 0 91 91" fill="none" xmlns="http://www.w3.org/2000/svg">
<path d="M77.4776 37.817C79.2065 34.8563 79.7318 31.3434 78.9426 28.0022C78.1345 24.6017 76.0305 21.6474 73.077 19.78C70.1231 17.9122 66.5551 17.2728 63.1337 18.0021L62.6786 18.0992L62.5681 17.6471C61.9479 15.1085 60.5914 12.8114 58.6699 11.0339C56.7518 9.26093 54.3512 8.08944 51.7711 7.66574C49.1983 7.25389 46.5654 7.59289 44.182 8.64555C41.8014 9.69915 39.774 11.419 38.3487 13.6009L38.0958 13.9881L37.6999 13.7492C34.7053 11.943 31.124 11.3833 27.7209 12.1873C24.3216 12.9919 21.3668 15.0991 19.4993 18.0527C17.6316 21.0066 16.9922 24.5745 17.7248 27.9962L17.8223 28.4517L17.3699 28.5622C14.8309 29.1825 12.5305 30.5386 10.7531 32.46C8.9802 34.3781 7.80875 36.7786 7.38505 39.3587C6.97263 41.9349 7.31392 44.5752 8.36994 46.959C9.42622 49.3433 11.1526 51.3718 13.3384 52.7943L13.7267 53.047L13.4874 53.4436C11.6811 56.4384 11.1175 60.0225 11.921 63.4281C12.7285 66.8316 14.8358 69.7863 17.7926 71.6543C20.7528 73.5229 24.3256 74.1529 27.7441 73.4163L28.1991 73.3182L28.3105 73.7702C29.1466 77.1643 31.2845 80.0967 34.2603 81.9339C37.236 83.771 40.8145 84.3679 44.2257 83.5959C47.6364 82.824 50.6072 80.7436 52.5031 77.8047L52.7552 77.4139L53.1535 77.6541C56.1482 79.4604 59.7323 80.024 63.1382 79.2172L77.4776 37.817ZM77.4776 37.817L76.6279 38.0497L77.5301 38.6313C80.4719 40.5276 82.5485 43.5008 83.3165 46.9143L83.3166 46.9148C84.088 50.3283 83.488 53.906 81.6477 56.8811C79.8036 59.8562 76.8716 61.9907 73.4716 62.8223L73.0183 62.9332L73.117 63.3893C73.8569 66.808 73.227 70.3806 71.3618 73.3415C69.4935 76.2988 66.5414 78.4098 63.1383 79.2171L77.4776 37.817Z" fill="#2FF89A" stroke="#340AAB" stroke-width="0.958635"/>
<path d="M45.2217 39.9168C44.5502 40.09 43.8899 40.2101 43.2631 40.4318C42.2778 40.7806 41.4677 41.4092 40.8309 42.2361C40.3338 42.8822 40.0859 43.5974 40.4478 44.3521C40.8307 45.1519 41.528 45.5655 42.4273 45.4598C43.2654 45.3615 44.0942 45.1232 44.9216 44.9178C45.5585 44.7595 46.1791 44.5201 46.8189 44.3828C48.2358 44.0783 49.1485 44.419 49.7386 45.414C50.392 46.516 50.2919 47.7019 49.4073 48.766C48.3165 50.0794 46.9145 50.7573 45.2197 50.8152C44.8173 50.8287 44.5759 50.6851 44.4457 50.2884C44.6834 50.2597 44.9117 50.2359 45.1403 50.2048C46.9145 49.9632 48.2938 49.0435 49.3703 47.6441C49.8646 47.0017 50.0311 46.2835 49.6567 45.5554C49.2708 44.8045 48.6248 44.3412 47.7539 44.4258C46.9045 44.5082 46.0617 44.7503 45.2218 44.9523C44.5244 45.1201 43.8423 45.3767 43.1408 45.5129C41.7081 45.7914 40.7893 45.3748 40.2619 44.2839C39.6857 43.0934 39.9321 41.8838 40.9442 40.9197C41.9555 39.9572 43.1597 39.517 44.5223 39.4704C44.8944 39.4582 45.125 39.5828 45.2217 39.9168Z" fill="#340AAB" stroke="#340AAB" stroke-width="0.958635"/>
<path d="M19.7562 56.2866C20.1578 56.5996 20.5609 56.9107 20.9613 57.2246C22.8054 58.6707 24.6481 60.1187 26.494 61.5635C26.8641 61.853 27.0643 61.8492 27.4507 61.576C27.8499 61.2937 27.9128 61.1049 27.7525 60.6361C26.8545 58.0114 25.9555 55.3867 25.057 52.7615C25.0225 52.6598 24.9912 52.5575 24.9312 52.3696C25.087 52.4681 25.1848 52.5186 25.2689 52.5851C27.4125 54.2693 29.5553 55.9551 31.6975 57.6413C32.2049 58.0407 32.4038 58.0599 32.8323 57.7461C33.209 57.4709 33.2792 57.2638 33.1289 56.8311C32.2569 54.3116 31.3828 51.7919 30.5102 49.2728C30.4466 49.0902 30.392 48.9047 30.3329 48.7206C30.3718 48.708 30.4113 48.6948 30.4503 48.6822C31.716 52.3443 32.9814 56.0059 34.2472 59.6681C34.2242 59.6863 34.2017 59.704 34.1791 59.7227C33.7075 59.358 33.2342 58.9961 32.7646 58.629C30.9653 57.2225 29.1681 55.8138 27.3684 54.4068C26.9843 54.1068 26.759 54.1011 26.3763 54.3717C25.9924 54.6432 25.9076 54.8687 26.0614 55.3166C26.9584 57.9295 27.8602 60.54 28.7595 63.1522C28.8008 63.2712 28.8297 63.3946 28.8017 63.5496C25.764 61.1582 22.7254 58.7683 19.6875 56.3779C19.7102 56.3476 19.7335 56.3168 19.7562 56.2866Z" fill="#340AAB" stroke="#340AAB" stroke-width="0.958635"/>
<path d="M34.1041 45.9253C37.4631 48.1049 40.8225 50.285 44.1815 52.4646C44.1603 52.4983 44.1397 52.5315 44.118 52.5645C43.9927 52.4895 43.8645 52.4182 43.742 52.3393C43.0872 51.9167 42.4286 51.5004 41.7832 51.0649C41.6008 50.9421 41.4723 50.9585 41.2941 51.0862C39.7098 52.2217 38.1221 53.3524 36.5299 54.4767C36.3446 54.6077 36.3083 54.7316 36.3621 54.938C36.5654 55.7146 36.7486 56.4966 36.9379 57.2769C36.9639 57.3847 36.9817 57.494 37.0028 57.6026C36.9706 57.6105 36.939 57.6179 36.9073 57.6264C35.9435 53.7422 34.9808 49.8582 34.0171 45.974C34.0461 45.9578 34.0751 45.9415 34.1041 45.9253ZM40.8671 50.4812C39.3402 49.4833 37.8687 48.5167 36.3906 47.5591C35.9885 47.2985 35.6232 47.4782 35.2695 47.7378C34.9185 47.9946 34.7077 48.2878 34.8205 48.7365C35.2099 50.2825 35.5883 51.831 35.9728 53.3778C36.0114 53.5332 36.0623 53.6851 36.115 53.864C37.7143 52.725 39.2662 51.6205 40.8671 50.4812Z" fill="#340AAB" stroke="#340AAB" stroke-width="0.958635"/>
<path d="M62.0383 39.7315C60.0467 36.933 58.0551 34.1345 56.0331 31.2932C55.0356 32.0031 54.0754 32.6864 53.0913 33.3867C52.9419 33.1768 52.8222 33.0085 52.6862 32.8174C54.6622 31.4111 56.6321 30.0092 58.6247 28.5911C58.7487 28.7653 58.8688 28.9341 59.0174 29.1428C58.0609 29.8236 57.1092 30.5008 56.1093 31.2124C58.1334 34.0567 60.1305 36.8628 62.1271 39.6684C62.0971 39.6897 62.0677 39.7106 62.0383 39.7315Z" fill="#340AAB" stroke="#340AAB" stroke-width="0.958635"/>
<path d="M66.5636 33.3334C65.8602 32.6442 65.5084 31.8054 65.6734 30.7871C65.7548 30.2849 65.9294 29.7931 66.0514 29.2948C66.1471 28.9033 66.2966 28.5046 66.2923 28.1164C66.2865 27.6586 66.2304 27.1641 66.0386 26.7636C65.5114 25.6628 64.5398 25.4154 63.4006 25.9858C62.2177 26.5777 61.3832 27.4727 60.8859 28.6755C60.8318 28.8068 60.7752 28.9371 60.707 29.0978C60.4378 28.8698 60.3186 28.6544 60.4201 28.3189C60.8295 26.9641 61.6027 25.891 62.9653 25.3443C64.1636 24.8634 65.416 25.3641 66.0653 26.4708C66.4673 27.1562 66.5577 27.8869 66.36 28.6662C66.2428 29.1285 66.1042 29.5866 65.9607 30.043C65.5932 31.2081 65.7491 32.2498 66.5577 33.145C66.5949 33.1857 66.6181 33.2389 66.6476 33.2869C66.6187 33.3021 66.5914 33.318 66.5636 33.3334Z" fill="#340AAB" stroke="#340AAB" stroke-width="0.958635"/>
<path d="M50.6488 35.1017C50.3422 35.3199 50.0619 35.5194 49.7694 35.7276C49.6271 35.5276 49.5115 35.3652 49.3588 35.1506C49.6837 34.9194 50.0044 34.6912 50.3251 34.4629C50.4879 34.3471 50.6506 34.2313 50.8134 34.1154C51.3208 33.7544 51.3702 33.7695 51.6388 34.4033C51.4264 34.5545 51.2082 34.7168 50.9821 34.868C50.8227 34.9744 50.7962 35.086 50.9107 35.2289C50.9628 35.2943 51.0069 35.3653 51.0553 35.4333C52.7486 37.8126 54.4418 40.1919 56.1347 42.5706C56.4134 42.9623 56.414 42.9619 56.8287 42.6676C56.9799 42.56 57.1311 42.4525 57.2883 42.3405C57.3465 42.3821 57.3903 42.4022 57.4188 42.4358C57.7815 42.8728 57.7809 42.8733 57.287 43.2247C56.8115 43.5631 56.336 43.9015 55.8427 44.2526C55.6959 44.0462 55.5749 43.8762 55.4255 43.6663C55.6232 43.5256 55.8039 43.374 56.0051 43.2591C56.287 43.0982 56.2708 42.9498 56.1027 42.7162C54.8432 40.9645 53.5959 39.2041 52.3454 37.4469C51.8684 36.7767 51.3921 36.1061 50.9144 35.4374C50.8401 35.333 50.7554 35.2361 50.6488 35.1017Z" fill="#340AAB" stroke="#340AAB" stroke-width="0.958635"/>
<path d="M68.3835 34.7706C68.6169 35.0974 68.5934 35.3649 68.3149 35.5552C68.0499 35.7359 67.7917 35.6723 67.5706 35.3721C67.3344 35.0518 67.3615 34.7958 67.6509 34.5924C67.9288 34.3973 68.1559 34.4521 68.3835 34.7706Z" fill="#340AAB" stroke="#340AAB" stroke-width="0.958635"/>
</svg>
