<svg width="111" height="112" viewBox="0 0 111 112" fill="none" xmlns="http://www.w3.org/2000/svg">
<path d="M98.3009 23.3103C100.212 27.8665 100.288 32.9809 98.5146 37.5878L97.7126 37.9573L98.6993 38.383C103.299 40.3675 106.931 44.0762 108.819 48.7146L108.819 48.715C110.712 53.3527 110.707 58.545 108.81 63.1786C106.907 67.8128 103.27 71.5166 98.6656 73.4914L98.2367 73.6753L98.4091 74.109C100.259 78.7612 100.211 83.9535 98.2745 88.5728C96.3332 93.1876 92.6626 96.8629 88.0482 98.804C83.4296 100.745 78.237 100.793 73.5838 98.9485L73.1515 98.7771L72.9671 99.204C70.9825 103.799 67.2783 107.436 62.6448 109.329C58.0106 111.222 52.8181 111.222 48.1844 109.329C43.5506 107.436 39.8418 103.799 37.8622 99.2044L37.678 98.7769L37.2453 98.9485C32.5927 100.793 27.4003 100.745 22.7811 98.8041C18.1669 96.8631 14.4963 93.1879 12.5549 88.5733C10.6186 83.9545 10.5703 78.7618 12.4153 74.1085L12.586 73.678L12.1615 73.4926C8.74094 71.9991 5.82625 69.542 3.7738 66.4249C1.7217 63.3082 0.61833 59.6613 0.594063 55.9275C0.584628 52.185 1.67326 48.5199 3.72488 45.3943C5.78162 42.2634 8.71004 39.8071 12.1487 38.3335L12.5768 38.15L12.4056 37.7168C10.5656 33.0586 10.6282 27.8709 12.5695 23.261C14.5106 18.6514 18.1859 14.9808 22.7955 13.0445C27.4106 11.1081 32.5984 11.0551 37.2513 12.8999L37.6812 13.0704L37.8669 12.6469C39.3652 9.23124 41.8222 6.32619 44.9345 4.27845C48.0513 2.23107 51.6886 1.13255 55.4176 1.10828C59.16 1.09885 62.825 2.18744 65.9506 4.23901C69.0819 6.29591 71.5381 9.21954 73.0116 12.6579L73.1949 13.0857L73.6279 12.9151C78.2863 11.0798 83.4742 11.1425 88.0841 13.0837C92.6935 15.0247 96.3595 18.7 98.3009 23.3103Z" fill="url(#paint0_linear)" stroke="#340AAB" stroke-width="0.958635"/>
<path d="M52.7724 52.3154C55.2499 52.3154 57.7355 52.3154 60.2953 52.3154C60.2953 52.9626 60.2953 53.5853 60.2953 54.304C58.1939 54.304 56.0876 54.304 53.8909 54.304C53.8683 54.7787 53.8506 55.1624 53.828 55.6697C55.8745 55.6697 57.8694 55.6697 59.782 55.6697C59.8902 55.8307 59.9386 55.8714 59.9434 55.9169C60.0984 57.4957 60.0984 57.4957 58.5054 57.4957C56.9834 57.4957 55.4614 57.4957 53.8909 57.4957C53.8909 58.0322 53.8909 58.4696 53.8909 58.9834C56.1312 58.9834 58.3214 58.9834 60.5826 58.9834C60.5826 59.6809 60.5826 60.302 60.5826 61.0353C59.8498 61.0353 59.1332 61.0353 58.4166 61.0353C56.7251 61.0353 55.0336 61.0337 53.3438 61.037C52.9758 61.037 52.6482 61.05 52.653 60.5183C52.6708 57.8696 52.6675 55.221 52.6772 52.5723C52.674 52.5024 52.7272 52.4292 52.7724 52.3154Z" fill="#340AAB"/>
<path d="M83.4693 58.9666C83.5936 59.1422 83.6194 59.1633 83.621 59.1861C83.847 61.0381 83.847 61.0381 81.9828 61.0381C79.9201 61.0381 77.8591 61.0381 75.727 61.0381C75.727 58.1162 75.727 55.2708 75.727 52.3474C78.2319 52.3474 80.7562 52.3474 83.3321 52.3474C83.3321 52.9767 83.3321 53.5815 83.3321 54.2953C81.2049 54.2953 79.076 54.2953 76.8794 54.2953C76.8794 54.7847 76.8794 55.1668 76.8794 55.6773C78.8694 55.6773 80.8627 55.6773 82.8189 55.6773C82.8915 55.8708 82.9351 55.944 82.9432 56.0188C83.1029 57.4707 83.0787 57.4968 81.6148 57.4968C80.4076 57.4968 79.1987 57.4968 77.9914 57.4968C76.6809 57.4968 76.6809 57.4968 76.902 58.9666C79.1002 58.9666 81.313 58.9666 83.4693 58.9666Z" fill="#340AAB"/>
<path d="M26.9669 40.3548C27.8352 40.0783 28.2791 40.332 28.5308 41.1921C28.9957 42.7839 29.5477 44.3513 30.1238 45.9057C30.2368 46.2098 30.629 46.6 30.897 46.6032C31.1729 46.6065 31.5894 46.2374 31.7072 45.9382C32.3334 44.3448 32.8951 42.7254 33.4551 41.1076C33.6294 40.6019 33.8409 40.3109 34.4639 40.3287C35.0401 40.345 35.3145 40.5206 35.4985 41.0702C36.0424 42.6945 36.6218 44.3074 37.248 45.9008C37.3675 46.2065 37.7225 46.5415 38.034 46.626C38.5618 46.7707 38.7361 46.3138 38.8798 45.8748C39.3946 44.2977 39.9353 42.7286 40.4631 41.1563C40.802 40.1434 40.815 40.1336 42.0497 40.3808C41.6252 41.623 41.2072 42.8554 40.7843 44.0879C40.2904 45.5317 39.7449 46.9593 39.3156 48.421C39.0718 49.2486 38.4811 48.9836 37.9646 49.0308C37.4498 49.0779 37.0753 49.0178 36.8768 48.3901C36.4184 46.9366 35.8874 45.5041 35.3193 44.0879C35.1983 43.7871 34.8319 43.4766 34.5171 43.3855C34.0362 43.2473 33.7699 43.5887 33.6085 44.0635C33.0984 45.5578 32.519 47.0292 32.0235 48.5267C31.7959 49.2129 31.2827 49.0226 30.8388 49.0194C30.3998 49.0161 29.8785 49.2291 29.6509 48.5381C28.7794 45.896 27.8659 43.2652 26.9717 40.6295C26.9459 40.5612 26.9669 40.4767 26.9669 40.3548Z" fill="#340AAB"/>
<path d="M86.1044 60.9102C86.1044 58.0599 86.1044 55.2113 86.1044 52.1919C88.0332 52.2813 89.9199 52.2244 91.7615 52.4878C94.1227 52.826 95.2751 54.395 95.2219 56.7689C95.1702 59.1005 93.9823 60.6126 91.6388 60.8712C89.8424 61.0695 88.0057 60.9102 86.1044 60.9102ZM87.3004 59.0404C89.1016 58.8794 90.8399 58.8257 92.5362 58.5363C93.6176 58.3526 94.0856 57.577 94.0808 56.6567C94.0759 55.7413 93.5691 55.0991 92.5168 54.7658C90.8189 54.2259 89.079 54.4763 87.3004 54.4324C87.3004 55.9397 87.3004 57.3445 87.3004 59.0404Z" fill="#340AAB"/>
<path d="M42.1219 52.1445C44.2911 52.286 46.3554 52.3055 48.3826 52.59C49.9724 52.8128 50.6793 53.8794 50.6551 55.4224C50.6309 56.9557 49.8675 57.9117 48.2874 58.1979C47.3964 58.3589 46.4765 58.3654 45.5662 58.406C44.8738 58.4369 44.1781 58.4125 43.3356 58.4125C43.3356 59.167 43.3195 59.8482 43.3405 60.5279C43.355 60.9913 43.0919 61.0417 42.7239 61.0417C42.3559 61.04 42.1106 60.9848 42.1122 60.5246C42.1284 57.8239 42.1219 55.1233 42.1219 52.1445ZM45.7986 56.346C45.8018 56.3703 45.8034 56.3947 45.8067 56.4175C46.7605 56.3134 47.7257 56.2598 48.6634 56.0744C48.983 56.011 49.2348 55.6127 49.5188 55.3671C49.2525 55.1119 48.9943 54.8501 48.7167 54.6062C48.6441 54.5412 48.5182 54.5135 48.4149 54.5103C46.8654 54.4517 45.3176 54.3883 43.7682 54.3672C43.6294 54.3656 43.3889 54.6306 43.3615 54.7981C43.1339 56.2143 43.2565 56.346 44.6752 56.346C45.0497 56.346 45.4241 56.346 45.7986 56.346Z" fill="#340AAB"/>
<path d="M32.7937 60.9894C32.337 60.9894 32.0255 60.9894 31.6575 60.9894C31.6575 58.0968 31.6575 55.2498 31.6575 52.2825C33.9267 52.3654 36.2089 51.9443 38.4153 52.7475C39.5999 53.1784 40.1503 54.0824 40.1342 55.3718C40.118 56.7571 39.5499 57.7603 38.2636 58.0318C36.9175 58.3163 35.5085 58.3424 34.1237 58.4025C32.5823 58.4676 32.8131 58.2692 32.7937 59.7374C32.7905 60.1309 32.7937 60.526 32.7937 60.9894ZM32.7953 54.4938C32.7953 54.8482 32.8276 55.2206 32.7873 55.5848C32.7195 56.1929 32.9713 56.3815 33.5636 56.3555C34.7418 56.3018 35.9233 56.336 37.0982 56.2693C37.5954 56.2416 38.1151 56.1197 38.5654 55.9116C39.1642 55.6352 39.1432 55.0726 38.5621 54.7555C38.3313 54.6303 38.0602 54.51 37.8068 54.5068C36.1815 54.4824 34.5546 54.4938 32.7953 54.4938Z" fill="#340AAB"/>
<path d="M65.9398 48.9398C65.1925 49.1105 64.555 49.1869 64.2951 48.304C64.0837 47.587 63.6027 47.4358 62.8942 47.4585C61.2592 47.5122 59.621 47.5041 57.986 47.4618C57.3452 47.4455 56.8998 47.5805 56.7077 48.2341C56.464 49.065 55.8797 49.1804 55.0647 48.9316C55.1551 48.7138 55.2261 48.4959 55.3294 48.2975C56.6238 45.8066 57.9376 43.3254 59.2062 40.8198C59.466 40.3077 59.8211 40.2117 60.3037 40.267C60.8218 40.3272 61.3964 40.0524 61.7563 40.7694C63.0669 43.3726 64.4355 45.9464 65.78 48.5317C65.8397 48.6438 65.8736 48.7658 65.9398 48.9398ZM58.2184 45.3432C59.7808 45.3432 61.2156 45.3432 62.7441 45.3432C62.4358 44.7383 62.1824 44.2424 61.929 43.7465C61.8564 43.6034 61.7902 43.4555 61.703 43.3221C61.2656 42.6588 59.8195 42.5401 59.374 43.1953C58.9302 43.8441 58.6203 44.5823 58.2184 45.3432Z" fill="#340AAB"/>
<path d="M29.8349 60.9261C28.9424 61.1863 28.3436 61.066 28.087 60.2075C27.903 59.5912 27.4898 59.4498 26.87 59.466C25.2092 59.5116 23.5436 59.5164 21.8828 59.4644C21.2001 59.4433 20.7417 59.601 20.5416 60.2758C20.2849 61.1326 19.6797 61.144 18.8727 60.9343C19.2326 60.2286 19.5635 59.5701 19.9024 58.9148C20.9628 56.8759 22.0232 54.8354 23.0933 52.7997C23.4403 52.1396 25.1511 51.9851 25.4852 52.6111C26.9394 55.3459 28.3597 58.0986 29.8349 60.9261ZM26.6021 57.3979C26.2938 56.7816 26.0501 56.2857 25.7983 55.793C25.7015 55.6028 25.6143 55.4045 25.4868 55.2354C25.064 54.6712 23.6614 54.585 23.2547 55.1687C22.7947 55.8304 22.4703 56.5865 22.0345 57.3979C23.6194 57.3979 25.0301 57.3979 26.6021 57.3979Z" fill="#340AAB"/>
<path d="M7.81821 52.3071C8.29111 52.3071 8.63005 52.3071 9.08681 52.3071C9.08681 53.1054 9.11747 53.8729 9.07712 54.6371C9.04646 55.2094 9.19817 55.4468 9.82925 55.4338C11.7822 55.3964 13.7367 55.4208 15.7913 55.4208C15.7913 54.3737 15.7913 53.3997 15.7913 52.3282C16.2433 52.3038 16.6 52.2859 17.0357 52.2632C17.0357 55.1882 17.0357 58.0548 17.0357 60.9798C16.6629 60.9798 16.3046 60.9798 15.8575 60.9798C15.8575 59.8547 15.8575 58.7702 15.8575 57.6207C13.585 57.6207 11.4013 57.6207 9.11102 57.6207C9.11102 58.7198 9.11102 59.8271 9.11102 60.9099C7.86985 61.1782 7.81982 61.1392 7.81982 60.0059C7.81982 57.7589 7.81982 55.5118 7.81982 53.2648C7.81821 52.9753 7.81821 52.6859 7.81821 52.3071Z" fill="#340AAB"/>
<path d="M63.1056 52.3397C64.2112 52.1722 65.1037 52.1933 65.8526 53.2648C66.9227 54.7981 68.2284 56.1688 69.3889 57.6419C69.9086 58.302 70.509 58.489 71.3918 58.2532C71.3918 56.2939 71.3918 54.3266 71.3918 52.3819C72.5991 52.1706 72.6314 52.1917 72.633 53.2063C72.6346 55.5639 72.6152 57.9199 72.6459 60.2759C72.654 60.8824 72.4458 61.0173 71.8631 61.0612C70.9383 61.1311 70.325 60.8385 69.7649 60.084C68.6448 58.58 67.3956 57.172 66.2448 55.6907C65.7493 55.0517 65.1763 54.8599 64.3129 55.0826C64.3129 56.45 64.3129 57.8337 64.3129 59.2174C64.3129 59.4857 64.3129 59.7523 64.3129 60.0206C64.3112 61.1197 64.3112 61.1197 63.1072 60.9571C63.1056 58.0987 63.1056 55.229 63.1056 52.3397Z" fill="#340AAB"/>
<path d="M44.0612 40.3074C44.4792 40.3074 44.8198 40.3074 45.2459 40.3074C45.2459 41.3253 45.2459 42.3041 45.2459 43.4146C45.9092 43.4146 46.487 43.4146 47.0649 43.4146C48.3528 43.4146 49.6424 43.4146 50.9304 43.4146C51.9988 43.4146 51.9988 43.413 52.0004 42.3089C52.0004 41.961 52.0004 41.613 52.0004 41.2651C52.0037 40.2196 52.0037 40.2196 53.1722 40.3172C53.1722 43.1772 53.1722 46.0437 53.1722 48.9135C52.0973 49.1802 52.0037 49.1119 52.0004 48.0583C51.9988 47.2599 52.0004 46.4632 52.0004 45.6063C49.7312 45.6063 47.5507 45.6063 45.2878 45.6063C45.2878 46.7185 45.2878 47.803 45.2878 48.9753C44.8521 48.9964 44.4938 49.0143 44.0596 49.0355C44.0612 46.1039 44.0612 43.2374 44.0612 40.3074Z" fill="#340AAB"/>
<path d="M70.5806 42.3695C70.5806 44.3743 70.5806 46.2165 70.5806 48.0587C70.5806 49.1204 70.5435 49.1464 69.3346 48.922C69.3346 46.8067 69.3346 44.6767 69.3346 42.4069C68.4453 42.4069 67.6254 42.4118 66.8055 42.4053C65.4546 42.3955 65.6337 42.5337 65.6176 41.1874C65.6144 40.924 65.6176 40.6606 65.6176 40.3306C68.4905 40.3306 71.294 40.3306 74.1814 40.3306C74.1814 40.9598 74.1814 41.6053 74.1814 42.3679C73.0323 42.3695 71.8702 42.3695 70.5806 42.3695Z" fill="#340AAB"/>
<path d="M102.339 54.7152C100.37 53.9608 98.4091 54.4242 96.4593 54.9494C96.0575 53.4665 96.2366 53.0665 97.5375 52.5966C98.7948 52.143 100.081 51.9137 101.409 52.2666C102.187 52.4731 102.851 52.8486 103.251 53.5852C103.921 54.8193 103.49 56.0387 102.184 56.5314C101.736 56.7005 101.259 56.8127 100.786 56.9086C100.115 57.0452 99.6228 57.3281 99.6341 58.1378C99.2855 58.1378 98.9707 58.1378 98.6576 58.1378C98.3461 57.2517 98.5172 56.6517 99.3081 56.2631C99.8552 55.9932 100.47 55.8631 101.048 55.6518C101.506 55.4843 101.952 55.2859 102.404 55.1022C102.383 54.9721 102.36 54.8437 102.339 54.7152Z" fill="#340AAB"/>
<path d="M100.325 60.05C100.32 60.811 99.9486 61.1719 99.1836 61.1557C98.475 61.141 98.0989 60.7655 98.0876 60.063C98.0763 59.3281 98.4782 58.9168 99.211 58.9119C99.9696 58.9086 100.329 59.2777 100.325 60.05Z" fill="#340AAB"/>
<defs>
<linearGradient id="paint0_linear" x1="110.715" y1="0.628913" x2="64.6697" y2="89.3527" gradientUnits="userSpaceOnUse">
<stop stop-color="#93F2FF"/>
<stop offset="1" stop-color="#DFFFDA"/>
</linearGradient>
</defs>
</svg>
